<svg width="48" height="48" viewBox="0 0 48 48" fill="none" xmlns="http://www.w3.org/2000/svg">
<path d="M15 16C15 15.7348 15.1054 15.4804 15.2929 15.2929C15.4804 15.1054 15.7348 15 16 15H32C32.2652 15 32.5196 15.1054 32.7071 15.2929C32.8946 15.4804 33 15.7348 33 16V18.586C32.9999 18.8512 32.8946 19.1055 32.707 19.293L26.293 25.707C26.1055 25.8945 26.0001 26.1488 26 26.414V29L22 33V26.414C21.9999 26.1488 21.8945 25.8945 21.707 25.707L15.293 19.293C15.1055 19.1055 15.0001 18.8512 15 18.586V16Z" stroke="black" stroke-width="2" stroke-linecap="round" stroke-linejoin="round"/>
</svg>
