<svg width="38" height="38" viewBox="0 0 38 38" fill="none" xmlns="http://www.w3.org/2000/svg">
<rect x="1.15137" y="1" width="36" height="36" stroke="#9F6838" stroke-width="1.5"/>
<line x1="2.06451" y1="1.22754" x2="19.875" y2="19.0381" stroke="#9F6838" stroke-width="1.5"/>
<line x1="25.1797" y1="0.848576" x2="37.3061" y2="12.9749" stroke="#9F6838" stroke-width="1.5"/>
<line x1="1.68891" y1="12.4768" x2="19.8783" y2="31.1716" stroke="#9F6838" stroke-width="1.5"/>
<path d="M1.15161 25.0002L12.8479 37.0001" stroke="#9F6838" stroke-width="1.5"/>
<path d="M25.3809 25.6571L36.6536 37.0001" stroke="#9F6838" stroke-width="1.5"/>
<line x1="25.1713" y1="13.3455" x2="37.2976" y2="25.0929" stroke="#9F6838" stroke-width="1.5"/>
<line x1="14.1895" y1="0.848576" x2="19.8737" y2="6.53279" stroke="#9F6838" stroke-width="1.5"/>
<line x1="1.00385" y1="12.9749" x2="7.06701" y2="6.9117" stroke="#9F6838" stroke-width="1.5"/>
<line x1="12.748" y1="12.5959" x2="24.1164" y2="1.22747" stroke="#9F6838" stroke-width="1.5"/>
<line x1="1.00385" y1="25.1013" x2="7.06701" y2="19.0381" stroke="#9F6838" stroke-width="1.5"/>
<line x1="1.649" y1="36.444" x2="7.0909" y2="31.5176" stroke="#9F6838" stroke-width="1.5"/>
<path d="M13.6506 36.9999L30.7339 19.5937" stroke="#9F6838" stroke-width="1.5"/>
<line x1="25.6235" y1="36.4691" x2="30.5603" y2="31.5427" stroke="#9F6838" stroke-width="1.5"/>
<line x1="12.748" y1="25.1013" x2="30.5585" y2="7.29073" stroke="#9F6838" stroke-width="1.5"/>
</svg>
