<svg width="25" height="25" viewBox="0 0 25 25" fill="none" xmlns="http://www.w3.org/2000/svg">
<path d="M13.5041 12.0781C13.4526 11.9842 13.3882 11.8979 13.3129 11.8217L12.4532 10.9737C12.3649 10.8838 12.2606 10.8112 12.1457 10.7595C11.9648 10.6788 11.7638 10.6548 11.5691 10.6905C11.3743 10.7262 11.1949 10.8201 11.0544 10.9597C10.7563 11.2531 10.2107 11.7884 9.22631 12.7611C7.34381 14.6234 3.84834 17.7448 2.26771 19.0761C2.18808 19.1427 2.12315 19.2251 2.07703 19.3182C2.03092 19.4112 2.00463 19.5128 1.99983 19.6166C1.99502 19.7203 2.01181 19.8239 2.04913 19.9208C2.08645 20.0177 2.14348 20.1058 2.21662 20.1795L4.04475 22.0278C4.11836 22.1016 4.20646 22.1595 4.3035 22.1976C4.40054 22.2358 4.50443 22.2535 4.60863 22.2495C4.71284 22.2456 4.8151 22.2202 4.909 22.1749C5.00291 22.1295 5.08641 22.0652 5.15428 21.9861C6.5249 20.375 9.66834 16.8767 11.5293 15.0378C12.4851 14.0975 13.0208 13.5575 13.3241 13.2593C13.4745 13.1064 13.5729 12.9099 13.6052 12.6978C13.6375 12.4858 13.6021 12.2689 13.5041 12.0781V12.0781ZM22.9265 9.92184L21.3182 8.32809C21.2936 8.30357 21.2644 8.28431 21.2321 8.27149C21.1999 8.25868 21.1654 8.25258 21.1307 8.25356C21.0961 8.25298 21.0617 8.25926 21.0295 8.27206C20.9973 8.28485 20.968 8.30389 20.9432 8.32809C20.8853 8.38627 20.8149 8.43035 20.7372 8.45693C20.6596 8.48351 20.5769 8.49187 20.4955 8.48137C20.2855 8.45841 20.0619 8.39325 19.9176 8.25356C19.5894 7.932 19.9687 7.29919 19.6799 6.89419C19.3501 6.45099 18.9886 6.03239 18.598 5.64169C18.2671 5.31356 16.9663 4.07278 14.7754 3.17934C14.0762 2.89291 13.3278 2.74578 12.5722 2.74622C11.3371 2.74622 10.3874 3.29747 10.041 3.61387C9.76537 3.86325 9.4785 4.25934 9.4785 4.25934C9.64415 4.19895 9.81338 4.14885 9.98522 4.10934C10.3436 4.03255 10.7113 4.00902 11.0765 4.0395C11.8058 4.09997 12.6847 4.44215 13.1563 4.81247C13.9162 5.42184 14.2429 6.237 14.294 7.28887C14.3315 8.07122 13.5801 9.05887 12.8671 9.86419C12.8044 9.93499 12.7713 10.0272 12.7748 10.1218C12.7783 10.2163 12.8181 10.3059 12.8858 10.3718L13.8815 11.367C13.9508 11.4355 14.0441 11.4743 14.1416 11.4752C14.2391 11.476 14.3331 11.4389 14.4037 11.3717C15.0566 10.7384 15.861 10.0372 16.3171 9.75637C16.7732 9.47559 17.1412 9.39637 17.3179 9.37715C17.6651 9.34353 18.0142 9.41925 18.3163 9.59372C18.3695 9.62382 18.4181 9.66139 18.4607 9.70528C18.7635 10.0128 18.7452 10.5153 18.4372 10.8181L18.3435 10.9067C18.3191 10.9307 18.2998 10.9593 18.2865 10.9908C18.2733 11.0224 18.2665 11.0562 18.2665 11.0904C18.2665 11.1246 18.2733 11.1585 18.2865 11.19C18.2998 11.2216 18.3191 11.2502 18.3435 11.2742L19.9518 12.8679C19.9765 12.8922 20.0058 12.9113 20.038 12.9241C20.0702 12.9368 20.1047 12.9429 20.1393 12.942C20.2091 12.943 20.2765 12.9164 20.3268 12.8679L22.9265 10.2968C22.9744 10.2462 23.0011 10.1791 23.0011 10.1093C23.0011 10.0396 22.9744 9.9725 22.9265 9.92184V9.92184Z" stroke="white" stroke-width="1.5" stroke-linecap="round" stroke-linejoin="round"/>
</svg>
