<svg width="38" height="38" viewBox="0 0 38 38" fill="none" xmlns="http://www.w3.org/2000/svg">
<rect x="1" y="1" width="36" height="36" fill="white" stroke="#9F6838" stroke-width="1.5"/>
<line x1="13.4971" y1="1" x2="13.4971" y2="36.6211" stroke="#9F6838" stroke-width="1.5"/>
<line x1="25.623" y1="1" x2="25.623" y2="36.6211" stroke="#9F6838" stroke-width="1.5"/>
<line x1="1.83523" y1="1.16261" x2="13.2037" y2="9.8784" stroke="#9F6838" stroke-width="1.5"/>
<line y1="-0.75" x2="15.1045" y2="-0.75" transform="matrix(-0.816721 0.577033 0.639547 0.768752 25.3359 2)" stroke="#9F6838" stroke-width="1.5"/>
<line x1="25.3294" y1="1.16267" x2="36.6978" y2="9.87846" stroke="#9F6838" stroke-width="1.5"/>
<line y1="-0.75" x2="14.7221" y2="-0.75" transform="matrix(0.797936 0.602743 -0.614111 0.78922 1 10)" stroke="#9F6838" stroke-width="1.5"/>
<line y1="-0.75" x2="15.7849" y2="-0.75" transform="matrix(-0.823527 0.567277 0.649099 0.760704 26 10)" stroke="#9F6838" stroke-width="1.5"/>
<line x1="25.3294" y1="9.87849" x2="36.6978" y2="18.5943" stroke="#9F6838" stroke-width="1.5"/>
<line y1="-0.75" x2="14.7221" y2="-0.75" transform="matrix(0.797936 0.602743 -0.614111 0.78922 1 18.8738)" stroke="#9F6838" stroke-width="1.5"/>
<line y1="-0.75" x2="15.7849" y2="-0.75" transform="matrix(-0.823527 0.567277 0.649099 0.760704 26 18.9545)" stroke="#9F6838" stroke-width="1.5"/>
<line x1="25.3294" y1="18.5943" x2="36.6978" y2="27.3101" stroke="#9F6838" stroke-width="1.5"/>
<line y1="-0.75" x2="14.7221" y2="-0.75" transform="matrix(0.797936 0.602743 -0.614111 0.78922 1 27.7474)" stroke="#9F6838" stroke-width="1.5"/>
<line y1="-0.75" x2="15.7849" y2="-0.75" transform="matrix(-0.823527 0.567277 0.649099 0.760704 26 27.9089)" stroke="#9F6838" stroke-width="1.5"/>
<line x1="25.3294" y1="27.3101" x2="36.6978" y2="36.0259" stroke="#9F6838" stroke-width="1.5"/>
</svg>
