<svg width="36" height="36" viewBox="0 0 36 36" fill="none" xmlns="http://www.w3.org/2000/svg">
	<path d="M27 0H9C4.05044 0 0 4.04868 0 9V27C0 31.9496 4.05044 36 9 36H27C31.9496 36 36 31.9496 36 27V9C36 4.04868 31.9496 0 27 0ZM18 25.4997C13.8573 25.4997 10.4999 22.1409 10.4999 18C10.4999 13.8573 13.8573 10.4999 18 10.4999C22.1409 10.4999 25.5001 13.8573 25.5001 18C25.5001 22.1409 22.1409 25.4997 18 25.4997ZM27.7501 10.4999C26.5063 10.4999 25.5001 9.49228 25.5001 8.24985C25.5001 7.00743 26.5063 5.99985 27.7501 5.99985C28.994 5.99985 30.0001 7.00743 30.0001 8.24985C30.0001 9.49228 28.994 10.4999 27.7501 10.4999Z" fill="url(#paint0_linear_2_568)"/>
	<defs>
		<linearGradient id="paint0_linear_2_568" x1="18" y1="0" x2="18" y2="36" gradientUnits="userSpaceOnUse">
			<stop stop-color="#FABAA7"/>
			<stop offset="1" stop-color="#CE9181"/>
		</linearGradient>
	</defs>
</svg>
