<svg width="23" height="23" viewBox="0 0 23 23" fill="none" xmlns="http://www.w3.org/2000/svg">
	<path d="M17.2492 0H5.74921C2.58699 0 -0.000793457 2.58666 -0.000793457 5.75V17.25C-0.000793457 20.4122 2.58699 23 5.74921 23H17.2492C20.4114 23 22.9992 20.4122 22.9992 17.25V5.75C22.9992 2.58666 20.4114 0 17.2492 0ZM11.4992 16.2915C8.85247 16.2915 6.70745 14.1456 6.70745 11.5C6.70745 8.85326 8.85247 6.70824 11.4992 6.70824C14.1448 6.70824 16.291 8.85326 16.291 11.5C16.291 14.1456 14.1448 16.2915 11.4992 16.2915ZM17.7285 6.70824C16.9338 6.70824 16.291 6.06451 16.291 5.27074C16.291 4.47697 16.9338 3.83324 17.7285 3.83324C18.5231 3.83324 19.166 4.47697 19.166 5.27074C19.166 6.06451 18.5231 6.70824 17.7285 6.70824Z" fill="url(#paint0_linear_8_18)"/>
	<defs>
		<linearGradient id="paint0_linear_8_18" x1="11.4992" y1="0" x2="11.4992" y2="23" gradientUnits="userSpaceOnUse">
			<stop stop-color="#FABAA7"/>
			<stop offset="1" stop-color="#CE9181"/>
		</linearGradient>
	</defs>
</svg>
