<svg width="49" height="49" viewBox="0 0 49 49" fill="none" xmlns="http://www.w3.org/2000/svg">
	<rect width="49" height="49" rx="24.5" fill="#171D21"/>
	<rect x="0.5" y="0.5" width="48" height="48" rx="24" stroke="url(#paint0_linear_2_499)" stroke-opacity="0.5"/>
	<g filter="url(#filter0_i_2_499)">
		<rect x="7.00488" y="7.00439" width="34.9913" height="34.9913" rx="17.4957" fill="#171D21" stroke="url(#paint1_linear_2_499)"/>
	</g>
	<path d="M24 14.625C22.1766 14.625 20.428 15.3493 19.1386 16.6386C17.8493 17.928 17.125 19.6766 17.125 21.5C17.125 25.1313 23.25 32.8125 23.5125 33.1437C23.5711 33.2167 23.6453 33.2757 23.7296 33.3161C23.814 33.3566 23.9064 33.3776 24 33.3776C24.0936 33.3776 24.186 33.3566 24.2704 33.3161C24.3547 33.2757 24.4289 33.2167 24.4875 33.1437C24.75 32.8125 30.875 25.1313 30.875 21.5C30.875 19.6766 30.1507 17.928 28.8614 16.6386C27.572 15.3493 25.8234 14.625 24 14.625ZM24 23.375C23.5055 23.375 23.0222 23.2284 22.6111 22.9537C22.2 22.679 21.8795 22.2885 21.6903 21.8317C21.5011 21.3749 21.4516 20.8722 21.548 20.3873C21.6445 19.9023 21.8826 19.4569 22.2322 19.1072C22.5819 18.7576 23.0273 18.5195 23.5123 18.423C23.9972 18.3266 24.4999 18.3761 24.9567 18.5653C25.4135 18.7545 25.804 19.075 26.0787 19.4861C26.3534 19.8972 26.5 20.3805 26.5 20.875C26.5 21.538 26.2366 22.1739 25.7678 22.6428C25.2989 23.1116 24.663 23.375 24 23.375Z" fill="url(#paint2_linear_2_499)"/>
	<defs>
		<filter id="filter0_i_2_499" x="6.50488" y="6.50439" width="35.9913" height="35.9912" filterUnits="userSpaceOnUse" color-interpolation-filters="sRGB">
			<feFlood flood-opacity="0" result="BackgroundImageFix"/>
			<feBlend mode="normal" in="SourceGraphic" in2="BackgroundImageFix" result="shape"/>
			<feColorMatrix in="SourceAlpha" type="matrix" values="0 0 0 0 0 0 0 0 0 0 0 0 0 0 0 0 0 0 127 0" result="hardAlpha"/>
			<feOffset/>
			<feGaussianBlur stdDeviation="6"/>
			<feComposite in2="hardAlpha" operator="arithmetic" k2="-1" k3="1"/>
			<feColorMatrix type="matrix" values="0 0 0 0 0.980392 0 0 0 0 0.729412 0 0 0 0 0.654902 0 0 0 0.2 0"/>
			<feBlend mode="normal" in2="shape" result="effect1_innerShadow_2_499"/>
		</filter>
		<linearGradient id="paint0_linear_2_499" x1="24.5" y1="0" x2="24.5" y2="49" gradientUnits="userSpaceOnUse">
			<stop stop-color="#FABAA7"/>
			<stop offset="1" stop-color="#CE9181"/>
		</linearGradient>
		<linearGradient id="paint1_linear_2_499" x1="24.5005" y1="6.50439" x2="24.5005" y2="42.4957" gradientUnits="userSpaceOnUse">
			<stop stop-color="#FABAA7"/>
			<stop offset="1" stop-color="#CE9181"/>
		</linearGradient>
		<linearGradient id="paint2_linear_2_499" x1="24" y1="14.625" x2="24" y2="33.3776" gradientUnits="userSpaceOnUse">
			<stop stop-color="#FABAA7"/>
			<stop offset="1" stop-color="#CE9181"/>
		</linearGradient>
	</defs>
</svg>
