<svg width="162" height="41" viewBox="0 0 162 41" fill="none" xmlns="http://www.w3.org/2000/svg">
	<path d="M53.2545 6.29065V15.7143C53.2545 20.1871 50.0798 21.6788 46.8475 21.6788C43.6151 21.6788 40.4405 20.1871 40.4405 15.7143V6.29065H43.5574V15.5354C43.5574 17.9211 44.885 18.7561 46.8475 18.7561C48.81 18.7561 50.1375 17.9211 50.1375 15.5354V6.29065H53.2545Z" fill="#FFFAF3"/>
	<path d="M56.199 21.3209V6.23105H59.1428L65.9538 16.0722C65.8961 15.4758 65.8961 14.7005 65.8961 13.9848V6.23105H69.013V21.3209H66.0693L59.2583 11.4797C59.316 12.0761 59.316 12.8515 59.316 13.5672V21.3209H56.199Z" fill="#FFFAF3"/>
	<path d="M75.2461 6.29065V21.3807H72.1292V6.29065H75.2461Z" fill="#FFFAF3"/>
	<path d="M88.6378 6.29065V9.21318H81.4804V12.7321H88.0606V15.6546H81.4804V21.3807H78.3635V6.29065H88.6378Z" fill="#FFFAF3"/>
	<path d="M94.0635 6.29065V18.4579H101.221V21.3807H90.9465V6.29065H94.0635Z" fill="#FFFAF3"/>
	<path d="M109.474 5.99243C114.611 5.99243 117.209 9.74993 117.209 13.8058C117.209 17.8615 114.611 21.619 109.474 21.619C104.337 21.619 101.739 17.8615 101.739 13.8058C101.739 9.74993 104.279 5.99243 109.474 5.99243ZM109.474 8.97461C106.415 8.97461 104.914 11.1814 104.914 13.8058C104.914 16.4301 106.415 18.6369 109.474 18.6369C112.475 18.6369 114.034 16.4301 114.034 13.8058C113.976 11.1814 112.475 8.97461 109.474 8.97461Z" fill="#FFFAF3"/>
	<path d="M126.445 5.99243C131.582 5.99243 134.179 9.74993 134.179 13.8058C134.179 17.8615 131.582 21.619 126.445 21.619C121.308 21.619 118.71 17.8615 118.71 13.8058C118.71 9.74993 121.308 5.99243 126.445 5.99243ZM126.445 8.97461C123.386 8.97461 121.885 11.1814 121.885 13.8058C121.885 16.4301 123.386 18.6369 126.445 18.6369C129.446 18.6369 131.005 16.4301 131.005 13.8058C131.005 11.1814 129.504 8.97461 126.445 8.97461Z" fill="#FFFAF3"/>
	<path d="M136.546 21.3209V6.23105H142.549C145.377 6.23105 148.321 7.30461 148.321 11.1218C148.321 13.6865 146.878 14.9987 145.146 15.5951L149.475 21.2611H145.897L141.971 16.0126H139.663V21.2611H136.546V21.3209ZM139.663 13.3883H142.664C143.991 13.3883 145.146 12.7918 145.146 11.2411C145.146 9.69043 143.991 9.09398 142.664 9.09398H139.663V13.3883Z" fill="#FFFAF3"/>
	<path d="M155.882 5.99243C157.614 5.99243 159.345 6.40991 160.615 7.12562V10.1675C159.404 9.27283 157.73 8.79573 156.114 8.85536C154.555 8.85536 153.747 9.33246 153.747 10.2271C153.747 12.8515 161.712 11.8375 161.712 17.2054C161.712 20.605 159.115 21.619 155.997 21.619C153.977 21.619 152.13 21.1424 150.63 20.247V17.1458C152.303 18.279 154.15 18.7562 155.767 18.7562C157.441 18.7562 158.48 18.3983 158.48 17.3248C158.48 14.5215 150.514 15.5354 150.514 10.2271C150.572 7.36422 153.054 5.99243 155.882 5.99243Z" fill="#FFFAF3"/>
	<path d="M43.7309 31.6995C43.7309 32.5949 43.0959 33.1313 42.057 33.1313H41.1912V34.265H40.4985V30.2687H42.1147C43.0959 30.2687 43.7309 30.8051 43.7309 31.6995ZM43.0382 31.6995C43.0382 31.2229 42.6919 30.9248 42.057 30.9248H41.1912V32.5351H42.057C42.6919 32.4752 43.0382 32.1771 43.0382 31.6995Z" fill="#FFFAF3"/>
	<path d="M51.6957 33.3088H49.7909L49.3869 34.2042H48.6365L50.3681 30.2079H51.0608L52.7924 34.2042H52.042L51.6957 33.3088ZM51.4648 32.7724L50.7145 31.0424L49.9641 32.7724H51.4648Z" fill="#FFFAF3"/>
	<path d="M60.7577 34.263L59.9497 33.0694C59.8919 33.0694 59.8342 33.0694 59.7765 33.0694H58.9106V34.263H58.218V30.2667H59.8342C60.8732 30.2667 61.5081 30.8031 61.5081 31.6974C61.5081 32.2947 61.2195 32.7713 60.7 32.9508L61.5658 34.263H60.7577ZM59.7765 30.8629H58.9106V32.4732H59.7765C60.4114 32.4732 60.7577 32.1751 60.7577 31.6974C60.7577 31.161 60.4114 30.8629 59.7765 30.8629Z" fill="#FFFAF3"/>
	<path d="M71.2634 34.6209C71.0325 34.9201 70.6862 35.0986 70.2245 35.0986C69.705 35.0986 69.3009 34.8603 68.7237 34.264C67.627 34.1444 66.8767 33.3088 66.8767 32.236C66.8767 31.0424 67.7425 30.2079 68.9546 30.2079C70.1667 30.2079 71.0325 31.1023 71.0325 32.236C71.0325 33.1902 70.4553 33.9649 69.5895 34.2042C69.8204 34.4425 69.9935 34.5622 70.2245 34.5622C70.4553 34.5622 70.6862 34.4425 70.8593 34.264L71.2634 34.6209ZM69.0123 33.6667C69.7627 33.6667 70.3976 33.0705 70.3976 32.236C70.3976 31.4004 69.8204 30.8041 69.0123 30.8041C68.2619 30.8041 67.627 31.4004 67.627 32.236C67.627 33.0705 68.2043 33.6667 69.0123 33.6667Z" fill="#FFFAF3"/>
	<path d="M76.7467 32.533V30.2667H77.4394V32.4732C77.4394 33.3077 77.7857 33.6657 78.4206 33.6657C79.0556 33.6657 79.4019 33.3077 79.4019 32.4732V30.2667H80.0945V32.533C80.0945 33.7255 79.4596 34.3218 78.4206 34.3218C77.3817 34.3218 76.7467 33.6657 76.7467 32.533Z" fill="#FFFAF3"/>
	<path d="M88.9257 34.2042H86.0397V30.2079H88.868V30.8041H86.7901V31.8182H88.6372V32.4144H86.7901V33.4883H88.9257V34.2042Z" fill="#FFFAF3"/>
	<path d="M94.1785 30.864V30.2079H97.4685V30.864H96.1987V34.2042H95.5061V30.864H94.1785Z" fill="#FFFAF3"/>
	<path d="M111.841 33.3088H109.937L109.532 34.2042H108.782L110.514 30.2079H111.206L112.938 34.2042H112.188L111.841 33.3088ZM111.61 32.7724L110.86 31.0424L110.11 32.7724H111.61Z" fill="#FFFAF3"/>
	<path d="M117.728 30.864V30.2079H121.019V30.864H119.749V34.2042H119.056V30.864H117.728Z" fill="#FFFAF3"/>
	<path d="M129.33 34.2042H126.444V30.2079H129.273V30.8041H127.195V31.8182H129.042V32.4144H127.195V33.4883H129.33V34.2042Z" fill="#FFFAF3"/>
	<path d="M135.102 30.2667H135.795V33.6069H137.815V34.263H135.102V30.2667Z" fill="#FFFAF3"/>
	<path d="M143.3 30.2667H143.992V34.263H143.3V30.2667Z" fill="#FFFAF3"/>
	<path d="M152.881 34.2042H149.994V30.2079H152.823V30.8041H150.687V31.8182H152.534V32.4144H150.687V33.4883H152.881V34.2042Z" fill="#FFFAF3"/>
	<path d="M161.134 34.263L160.325 33.0694C160.268 33.0694 160.21 33.0694 160.152 33.0694H159.345V34.263H158.651V30.2667H160.268C161.307 30.2667 161.942 30.8031 161.942 31.6974C161.942 32.2947 161.653 32.7713 161.134 32.9508L161.999 34.263H161.134ZM160.152 30.8629H159.345V32.4732H160.21C160.844 32.4732 161.192 32.1751 161.192 31.6974C161.134 31.161 160.787 30.8629 160.152 30.8629Z" fill="#FFFAF3"/>
	<path d="M31.0756 12.8578L29.7985 14.2113V24.7006C29.7985 32.8213 23.4131 39.4195 15.5542 39.4195C7.69525 39.4195 1.30984 32.8213 1.30984 24.7006V20.9109H3.27461V24.7006C3.27461 31.7047 8.77584 37.3893 15.5542 37.3893C22.3325 37.3893 27.8338 31.7047 27.8338 24.7006V16.2077L26.524 17.5611V24.7006C26.524 30.9603 21.6121 36.0358 15.5542 36.0358C9.49627 36.0358 4.58439 30.9603 4.58439 24.7006V20.9109H6.54915V24.9375C6.54915 30.0806 10.5769 34.2425 15.5542 34.2425C20.5315 34.2425 24.5592 30.0806 24.5592 24.9375V19.5913L23.2494 20.9448V24.9713C23.2494 29.3701 19.8111 32.9229 15.5542 32.9229C11.2972 32.9229 7.85899 29.3362 7.85899 24.9713V20.9109H10.9371L12.2469 19.5575H7.85899V17.595H14.1461L15.4559 16.2415H7.85899V14.279H17.3224L18.6323 12.9255H7.85899V7.88387H23.6096L24.9194 6.53043H6.54915V12.9932H4.58439V4.73711H26.6222L27.932 3.38365H3.27461V12.9594H1.30984V1.35346H29.8968V1.3873L31.2066 0.0338365L0 0V24.7006C0 33.5657 6.97482 40.7729 15.5542 40.7729C24.1335 40.7729 31.1084 33.5657 31.1084 24.7006V12.8578H31.0756ZM4.58439 14.3128H6.54915V16.2753H4.58439V14.3128ZM4.58439 17.6288H6.54915V19.5913H4.58439V17.6288ZM1.30984 14.3128H3.27461V16.2753H1.30984V14.3128ZM1.30984 17.6288H3.27461V19.5913H1.30984V17.6288Z" fill="url(#paint0_linear_8_5)"/>
	<defs>
		<linearGradient id="paint0_linear_8_5" x1="0.0655702" y1="20.3865" x2="161.98" y2="20.3865" gradientUnits="userSpaceOnUse">
			<stop stop-color="#FABAA7"/>
			<stop offset="1" stop-color="#CE9181"/>
		</linearGradient>
	</defs>
</svg>
