<svg width="49" height="49" viewBox="0 0 49 49" fill="none" xmlns="http://www.w3.org/2000/svg">
	<rect width="49" height="49" rx="24.5" fill="#171D21"/>
	<rect x="0.5" y="0.5" width="48" height="48" rx="24" stroke="url(#paint0_linear_2_469)" stroke-opacity="0.5"/>
	<g filter="url(#filter0_i_2_469)">
		<rect x="7.00488" y="7.00439" width="34.9913" height="34.9913" rx="17.4957" fill="#171D21" stroke="url(#paint1_linear_2_469)"/>
	</g>
	<path d="M30.5388 27.6265L28.4703 26.1812C28.1998 25.9926 27.8836 25.8931 27.5558 25.8931C27.0344 25.8931 26.545 26.1488 26.247 26.5766L25.7668 27.2648C24.962 26.725 24.064 25.9714 23.2079 25.1155C22.352 24.2596 21.5985 23.3616 21.0589 22.5568L21.7468 22.0766C22.0974 21.8325 22.3316 21.4667 22.406 21.047C22.4802 20.6276 22.3866 20.2039 22.1422 19.8531L20.6973 17.7846C20.3951 17.3524 19.9076 17.0942 19.393 17.0942C19.2146 17.0942 19.0397 17.1257 18.8732 17.1872C18.6841 17.257 18.5079 17.3427 18.3352 17.4513L18.0495 17.6524C17.9781 17.7079 17.9117 17.7687 17.8481 17.8323C17.4997 18.1806 17.2524 18.6215 17.1129 19.1428C16.5175 21.3747 17.9925 24.7497 20.7832 27.5404C23.1267 29.884 25.9422 31.3398 28.1306 31.3401H28.1307C28.5055 31.3401 28.8588 31.2964 29.1809 31.2104C29.7023 31.071 30.1431 30.8237 30.4917 30.4751C30.555 30.4118 30.6155 30.3454 30.6804 30.2616L30.8817 29.9744C30.98 29.8172 31.0656 29.6411 31.1364 29.4505C31.3798 28.7926 31.1341 28.0424 30.5388 27.6265Z" fill="url(#paint2_linear_2_469)"/>
	<defs>
		<filter id="filter0_i_2_469" x="6.50488" y="6.50439" width="35.9913" height="35.9912" filterUnits="userSpaceOnUse" color-interpolation-filters="sRGB">
			<feFlood flood-opacity="0" result="BackgroundImageFix"/>
			<feBlend mode="normal" in="SourceGraphic" in2="BackgroundImageFix" result="shape"/>
			<feColorMatrix in="SourceAlpha" type="matrix" values="0 0 0 0 0 0 0 0 0 0 0 0 0 0 0 0 0 0 127 0" result="hardAlpha"/>
			<feOffset/>
			<feGaussianBlur stdDeviation="6"/>
			<feComposite in2="hardAlpha" operator="arithmetic" k2="-1" k3="1"/>
			<feColorMatrix type="matrix" values="0 0 0 0 0.980392 0 0 0 0 0.729412 0 0 0 0 0.654902 0 0 0 0.2 0"/>
			<feBlend mode="normal" in2="shape" result="effect1_innerShadow_2_469"/>
		</filter>
		<linearGradient id="paint0_linear_2_469" x1="24.5" y1="0" x2="24.5" y2="49" gradientUnits="userSpaceOnUse">
			<stop stop-color="#FABAA7"/>
			<stop offset="1" stop-color="#CE9181"/>
		</linearGradient>
		<linearGradient id="paint1_linear_2_469" x1="24.5005" y1="6.50439" x2="24.5005" y2="42.4957" gradientUnits="userSpaceOnUse">
			<stop stop-color="#FABAA7"/>
			<stop offset="1" stop-color="#CE9181"/>
		</linearGradient>
		<linearGradient id="paint2_linear_2_469" x1="24.1058" y1="17.0942" x2="24.1058" y2="31.3401" gradientUnits="userSpaceOnUse">
			<stop stop-color="#FABAA7"/>
			<stop offset="1" stop-color="#CE9181"/>
		</linearGradient>
	</defs>
</svg>
