<svg width="42" height="42" viewBox="0 0 42 42" fill="none" xmlns="http://www.w3.org/2000/svg">
<path d="M0 7C0 3.13401 3.13401 0 7 0H35C38.866 0 42 3.13401 42 7V35C42 38.866 38.866 42 35 42H7C3.13401 42 0 38.866 0 35V7Z" fill="#EDECEA"/>
<path d="M21.7116 25.9378V21.4419C21.7116 21.4419 18.912 22.0673 17.3296 22.9026C15.0335 24.1147 13.1676 27.1506 12.0712 29.3086C11.8272 29.7888 11.0799 29.6182 11.1259 29.0815C11.4334 25.5018 12.4893 19.2309 16.1124 17.0599C18.073 15.8851 21.7116 15.5993 21.7116 15.5993V11.0429C21.7116 10.6295 22.1942 10.4042 22.5111 10.6696L31.0225 17.7979C31.2485 17.9871 31.2558 18.3321 31.0381 18.5308L22.5267 26.2974C22.2141 26.5826 21.7116 26.3609 21.7116 25.9378Z" fill="black"/>
</svg>
