<svg xmlns="http://www.w3.org/2000/svg" xml:space="preserve" width="23" height="23" viewBox="0 0 500 500"><g transform="matrix(17.77 0 0 17.84 250.51 250.49)"><linearGradient id="a" x1="15.16" x2="15.22" y1="0" y2="30" gradientTransform="translate(2.03 2)" gradientUnits="userSpaceOnUse"><stop offset="0%" stop-color="#f9b9a6"/><stop offset="50%" stop-color="#e2a492"/><stop offset="100%" stop-color="#ce9181"/></linearGradient><path fill="url(#a)" d="M26.49 29.86H5.5a3.37 3.37 0 0 1-2.47-1 3.35 3.35 0 0 1-1-2.47V5.48A3.36 3.36 0 0 1 5.5 2h21c.94-.03 1.84.33 2.5 1a3.36 3.36 0 0 1 1 2.46v20.91c.02.93-.34 1.82-1 2.47a3.38 3.38 0 0 1-2.51 1.02Zm-5.38-6.71c.41.04.78-.25.85-.66l2.77-13.25a.55.55 0 0 0-.18-.46.62.62 0 0 0-.41-.17q-.08 0-16.53 6.11a.59.59 0 0 0-.41.59c.01.25.19.46.43.52l4 1.24 1.61 4.83c.09.27.35.45.63.43.15 0 .3-.06.4-.17L16.54 20l4.09 3c.14.1.3.15.48.15Zm-7.31-2.44-1.21-4q8.72-5.55 8.78-5.55c.15 0 .23 0 .23.16v.06s-2.51 2.3-7.52 6.8Z" transform="translate(-16.01 -15.93)" vector-effect="non-scaling-stroke"/></g></svg>