<svg width="33" height="33" viewBox="0 0 33 33" fill="none" xmlns="http://www.w3.org/2000/svg">
<path d="M2.04225 32.209H32.4034C32.8576 32.209 33.2931 32.0286 33.6142 31.7075C33.9353 31.3864 34.1157 30.9509 34.1157 30.4968V21.5845C34.1157 21.1304 33.9353 20.6948 33.6142 20.3737C33.2931 20.0526 32.8576 19.8722 32.4034 19.8722H2.04225C1.58813 19.8722 1.15261 20.0526 0.831496 20.3737C0.510384 20.6948 0.329985 21.1304 0.329985 21.5845V30.4968C0.329985 30.9509 0.510384 31.3864 0.831496 31.7075C1.15261 32.0286 1.58813 32.209 2.04225 32.209ZM1.46395 21.0062C1.61733 20.8528 1.82535 20.7667 2.04225 20.7667H32.4034C32.6203 20.7667 32.8284 20.8528 32.9817 21.0062C33.1351 21.1596 33.2213 21.3676 33.2213 21.5845V30.4968C33.2213 30.7137 33.1351 30.9217 32.9817 31.0751C32.8284 31.2284 32.6203 31.3146 32.4034 31.3146H2.04225C1.82535 31.3146 1.61733 31.2284 1.46395 31.0751C1.31058 30.9217 1.22441 30.7137 1.22441 30.4968V21.5845C1.22441 21.3676 1.31058 21.1596 1.46395 21.0062Z" fill="black" stroke="black" stroke-width="0.261905"/>
<path d="M27.2341 22.7313V22.7314H30.0932H30.0939V22.7314C30.4026 22.7332 30.6979 22.8572 30.9155 23.076M27.2341 22.7313L30.9155 23.076M27.2341 22.7313L27.2333 22.7314M27.2341 22.7313L27.2333 22.7314M30.9155 23.076C31.133 23.2949 31.2551 23.591 31.2551 23.8996V28.1882C31.2551 28.4963 31.1327 28.7919 30.9148 29.0098C30.6969 29.2277 30.4013 29.3501 30.0932 29.3501M30.9155 23.076L30.0932 29.3501M27.2333 22.7314C26.9247 22.7332 26.6294 22.8572 26.4118 23.076C26.1943 23.2949 26.0722 23.591 26.0722 23.8996L27.2333 22.7314ZM30.0932 29.3501H27.2341C27.0815 29.3501 26.9305 29.3201 26.7895 29.2617C26.6485 29.2033 26.5204 29.1177 26.4125 29.0098C26.3046 28.9019 26.219 28.7738 26.1606 28.6328C26.1022 28.4919 26.0722 28.3408 26.0722 28.1882V23.8996L30.0932 29.3501ZM26.9666 23.9313V23.9313C26.9666 23.8594 26.9949 23.7903 27.0453 23.7391C27.0957 23.6879 27.1641 23.6586 27.2359 23.6574C27.236 23.6574 27.2361 23.6574 27.2362 23.6574L30.0927 23.6258C30.164 23.6273 30.2319 23.6566 30.282 23.7075C30.3324 23.7587 30.3607 23.8277 30.3607 23.8996V23.8996V28.2198C30.3607 28.2907 30.3325 28.3588 30.2823 28.409C30.2322 28.4591 30.1641 28.4873 30.0932 28.4873H27.2341C27.199 28.4873 27.1642 28.4804 27.1318 28.467C27.0993 28.4535 27.0698 28.4338 27.045 28.409C27.0201 28.3841 27.0004 28.3546 26.987 28.3222C26.9735 28.2897 26.9666 28.2549 26.9666 28.2198V23.9313Z" fill="black" stroke="black" stroke-width="0.261905"/>
<path d="M22.9378 29.3501V29.3501H20.0662C19.9136 29.3501 19.7625 29.3201 19.6215 29.2617C19.4805 29.2033 19.3524 29.1177 19.2445 29.0098C19.1366 28.9019 19.051 28.7738 18.9927 28.6328C18.9343 28.4919 18.9042 28.3408 18.9042 28.1882V23.8996L22.9378 29.3501ZM22.9378 29.3501L22.9394 29.3501M22.9378 29.3501L22.9394 29.3501M22.9394 29.3501C23.2451 29.3464 23.537 29.2223 23.7519 29.0048C23.9667 28.7873 24.0872 28.4939 24.0872 28.1882C24.0872 28.1882 24.0872 28.1882 24.0872 28.1882V23.8996C24.0872 23.591 23.965 23.2949 23.7475 23.076C23.5299 22.8572 23.2346 22.7332 22.926 22.7314V22.7314H22.9252H20.0662V22.7313M22.9394 29.3501L20.0662 22.7313M20.0662 22.7313L20.0654 22.7314M20.0662 22.7313L20.0654 22.7314M20.0654 22.7314C19.7568 22.7332 19.4614 22.8572 19.2439 23.076C19.0263 23.2949 18.9042 23.591 18.9042 23.8996L20.0654 22.7314ZM19.8113 23.9313V23.9313C19.8113 23.8594 19.8395 23.7903 19.89 23.7391C19.9404 23.6879 20.0088 23.6586 20.0806 23.6574C20.0807 23.6574 20.0808 23.6574 20.0809 23.6574L22.9374 23.6258C23.0087 23.6273 23.0766 23.6566 23.1267 23.7075C23.1771 23.7587 23.2054 23.8277 23.2054 23.8996V23.8996V28.2198C23.2054 28.2907 23.1772 28.3588 23.127 28.409C23.0768 28.4591 23.0088 28.4873 22.9378 28.4873H20.0788C20.0079 28.4873 19.9398 28.4591 19.8896 28.409C19.8395 28.3588 19.8113 28.2907 19.8113 28.2198V23.9313Z" fill="black" stroke="black" stroke-width="0.261905"/>
<path d="M12.9353 22.7313V22.7314H15.7943H15.7951V22.7314C16.1037 22.7332 16.3991 22.8572 16.6166 23.076M12.9353 22.7313L16.6166 23.076M12.9353 22.7313L12.9345 22.7314M12.9353 22.7313L12.9345 22.7314M16.6166 23.076C16.8342 23.2949 16.9563 23.591 16.9563 23.8996V28.1882C16.9563 28.4963 16.8339 28.7919 16.616 29.0098C16.398 29.2277 16.1025 29.3501 15.7943 29.3501M16.6166 23.076L15.7943 29.3501M12.9345 22.7314C12.6259 22.7332 12.3306 22.8572 12.113 23.076C11.8954 23.2949 11.7733 23.591 11.7733 23.8996L12.9345 22.7314ZM15.7943 29.3501H12.9353C12.7827 29.3501 12.6316 29.3201 12.4906 29.2617C12.3497 29.2033 12.2216 29.1177 12.1137 29.0098C12.0058 28.9019 11.9202 28.7738 11.8618 28.6328C11.8034 28.4919 11.7733 28.3408 11.7733 28.1882V23.8996L15.7943 29.3501ZM12.6678 23.9313V23.9313C12.6678 23.8594 12.696 23.7903 12.7465 23.7391C12.7968 23.6879 12.8653 23.6586 12.9371 23.6574C12.9372 23.6574 12.9373 23.6574 12.9374 23.6574L15.7939 23.6258C15.8652 23.6273 15.9331 23.6566 15.9832 23.7075C16.0336 23.7587 16.0619 23.8277 16.0619 23.8996V23.8996V28.2198C16.0619 28.2907 16.0337 28.3588 15.9835 28.409C15.9333 28.4591 15.8653 28.4873 15.7943 28.4873H12.9353C12.8644 28.4873 12.7963 28.4591 12.7461 28.409C12.696 28.3588 12.6678 28.2907 12.6678 28.2198V23.9313Z" fill="black" stroke="black" stroke-width="0.261905"/>
<path d="M6.49772 27.9206L6.49819 27.9206C6.99525 27.9188 7.47145 27.7205 7.82292 27.3691C8.1744 27.0176 8.37265 26.5414 8.37444 26.0443V26.0439C8.37444 25.6727 8.26438 25.3098 8.05816 25.0012C7.85194 24.6926 7.55884 24.452 7.21591 24.31C6.87299 24.168 6.49564 24.1308 6.13159 24.2032C5.76754 24.2756 5.43314 24.4544 5.17068 24.7168C4.90822 24.9793 4.72948 25.3137 4.65706 25.6777C4.58465 26.0418 4.62181 26.4191 4.76386 26.7621C4.9059 27.105 5.14645 27.3981 5.45507 27.6043C5.7637 27.8105 6.12654 27.9206 6.49772 27.9206ZM5.95199 25.2271C6.11353 25.1192 6.30344 25.0616 6.49772 25.0616C6.75824 25.0616 7.00809 25.1651 7.19231 25.3493C7.37652 25.5335 7.48001 25.7833 7.48001 26.0439C7.48001 26.2381 7.4224 26.4281 7.31447 26.5896C7.20653 26.7511 7.05312 26.877 6.87363 26.9514C6.69414 27.0257 6.49663 27.0452 6.30609 27.0073C6.11554 26.9694 5.94051 26.8758 5.80314 26.7385C5.66576 26.6011 5.57221 26.426 5.53431 26.2355C5.4964 26.045 5.51586 25.8474 5.5902 25.668C5.66455 25.4885 5.79045 25.3351 5.95199 25.2271Z" fill="black" stroke="black" stroke-width="0.261905"/>
<path d="M21.4058 19.2216L21.4056 19.2217L21.4118 19.2274C21.4968 19.3045 21.6069 19.348 21.7215 19.3499C21.78 19.3543 21.8388 19.3475 21.8947 19.3298C21.9524 19.3116 22.0059 19.2822 22.0522 19.2433L22.0525 19.2437L22.0605 19.2357L29.0183 12.2779L29.0188 12.2774C29.3686 11.9237 29.5649 11.4462 29.5649 10.9487C29.5649 10.4512 29.3686 9.97374 29.0188 9.62002L29.018 9.61928L22.9205 3.55336L22.9202 3.5531C22.5665 3.20323 22.0891 3.00699 21.5915 3.00699C21.094 3.00699 20.6166 3.20323 20.2629 3.5531L20.2623 3.55362L5.25887 18.5634C5.25886 18.5634 5.25886 18.5634 5.25885 18.5634C5.17559 18.6467 5.12881 18.7596 5.12881 18.8774C5.12881 18.9952 5.1756 19.1081 5.25887 19.1914C5.34214 19.2746 5.45508 19.3214 5.57285 19.3214C5.69061 19.3214 5.80354 19.2747 5.88681 19.1914C5.88682 19.1914 5.88682 19.1914 5.88683 19.1914L20.8966 4.18791L20.8967 4.18785C20.9879 4.09656 21.0962 4.02413 21.2154 3.97472C21.3347 3.92531 21.4625 3.89987 21.5915 3.89987C21.7206 3.89987 21.8484 3.92531 21.9676 3.97472C22.0869 4.02413 22.1952 4.09656 22.2864 4.18786L22.2866 4.18808L28.365 10.2412C28.365 10.2412 28.3651 10.2412 28.3651 10.2412C28.4564 10.3325 28.5288 10.4408 28.5782 10.56C28.6276 10.6792 28.653 10.807 28.653 10.936C28.653 11.0651 28.6276 11.1929 28.5782 11.3121C28.5288 11.4314 28.4563 11.5397 28.365 11.6309L28.365 11.6309L21.4072 18.5887L21.4058 18.5902C21.3238 18.6748 21.2779 18.788 21.2779 18.9059C21.2779 19.0237 21.3238 19.1369 21.4058 19.2216Z" fill="black" stroke="black" stroke-width="0.261905"/>
<path d="M21.7783 13.8281L21.7784 13.828L18.7423 10.7919L18.7415 10.7911C18.5266 10.5726 18.4062 10.2784 18.4062 9.97186C18.4062 9.66536 18.5266 9.37115 18.7415 9.15263L18.7423 9.15186L18.7423 9.15186L20.7664 7.12778L20.7684 7.12577L20.7684 7.1258C20.9894 6.91418 21.2836 6.79605 21.5895 6.79605C21.8955 6.79605 22.1897 6.91418 22.4107 7.1258L22.4127 7.12776L22.4127 7.12778L25.4423 10.1574C25.4423 10.1574 25.4424 10.1575 25.4424 10.1575L25.4425 10.1576L21.7783 13.8281ZM21.7783 13.8281L21.7824 13.8318C22.0043 14.0355 22.2974 14.1434 22.5982 14.1321L21.7783 13.8281ZM21.4005 7.73059L21.4005 7.7306L21.4018 7.72928C21.4506 7.67922 21.5171 7.65028 21.587 7.64863C21.6588 7.64964 21.7274 7.67882 21.7779 7.72992L21.7779 7.72992L21.7785 7.73054L24.8137 10.7594C24.8627 10.8104 24.89 10.8784 24.89 10.9491C24.89 11.0198 24.8627 11.0878 24.8137 11.1388L22.7904 13.1621L22.7904 13.1621L22.7891 13.1635C22.7647 13.1886 22.7356 13.2085 22.7034 13.2222C22.6712 13.2358 22.6365 13.2428 22.6016 13.2428C22.5666 13.2428 22.532 13.2358 22.4998 13.2222L22.4487 13.3428L22.4998 13.2222C22.4676 13.2085 22.4384 13.1886 22.4141 13.1635L22.4141 13.1635L22.4127 13.1621L19.3766 10.1259L19.3766 10.1259L19.3752 10.1246C19.3501 10.1002 19.3301 10.0711 19.3165 10.0389C19.3029 10.0067 19.2958 9.97204 19.2958 9.93707C19.2958 9.9021 19.3029 9.86749 19.3165 9.83528C19.3301 9.80308 19.3501 9.77394 19.3752 9.74959L19.3752 9.7496L19.3764 9.74834L21.4005 7.73059Z" fill="black" stroke="black" stroke-width="0.261905"/>
<path d="M17.5374 19.1918C17.3846 19.1924 17.2333 19.1624 17.0923 19.1036C16.9514 19.0448 16.8237 18.9583 16.7168 18.8493C16.7166 18.8492 16.7164 18.849 16.7163 18.8489L13.6814 15.814C13.6814 15.814 13.6813 15.8139 13.6813 15.8139C13.5731 15.7065 13.4872 15.5787 13.4286 15.438C13.3699 15.2972 13.3398 15.1462 13.3398 14.9937C13.3398 14.8411 13.3699 14.6901 13.4286 14.5493C13.4872 14.4086 13.5731 14.2809 13.6813 14.1735C13.6813 14.1734 13.6814 14.1734 13.6814 14.1733L15.7048 12.1499C15.7049 12.1499 15.7049 12.1498 15.705 12.1498C15.8124 12.0416 15.9401 11.9557 16.0808 11.8971C16.2216 11.8384 16.3726 11.8083 16.5252 11.8083C16.6777 11.8083 16.8287 11.8384 16.9695 11.8971C17.1102 11.9557 17.238 12.0416 17.3454 12.1498C17.3454 12.1498 17.3455 12.1499 17.3455 12.1499L20.3803 15.1848C20.3805 15.1849 20.3807 15.1851 20.3808 15.1853C20.4898 15.2922 20.5763 15.4199 20.6351 15.5608C20.6939 15.7017 20.7238 15.8529 20.7232 16.0055M17.5374 19.1918C17.69 19.192 17.8411 19.1618 17.9819 19.1031C18.1227 19.0443 18.2504 18.9581 18.3575 18.8495C18.3576 18.8494 18.3577 18.8492 18.3579 18.8491L20.3807 16.8263C20.49 16.7195 20.5767 16.5918 20.6356 16.4508C20.6944 16.3098 20.7243 16.1583 20.7232 16.0055M17.5374 19.1918C17.5372 19.1918 17.5371 19.1918 17.5369 19.1918L17.5372 19.0608L17.5378 19.1917C17.5377 19.1917 17.5375 19.1918 17.5374 19.1918ZM20.7232 16.0055C20.7232 16.0053 20.7232 16.005 20.7232 16.0048L20.5923 16.0057L20.7232 16.0063C20.7232 16.006 20.7232 16.0058 20.7232 16.0055ZM14.314 14.8093L14.314 14.8094L14.3155 14.8078L16.3325 12.7845C16.3849 12.7337 16.4542 12.7044 16.527 12.702H16.5315V12.7022L16.5367 12.7019C16.6061 12.6992 16.6741 12.7211 16.7287 12.7637L19.7533 15.7884L19.7533 15.7884L19.7543 15.7893C19.7797 15.8142 19.7999 15.8439 19.8137 15.8768C19.8275 15.9096 19.8346 15.9448 19.8346 15.9804C19.8346 16.016 19.8275 16.0512 19.8137 16.084C19.7999 16.1169 19.7797 16.1466 19.7543 16.1715L19.7543 16.1715L19.753 16.1727L17.7226 18.2158L17.7226 18.2158L17.7215 18.2169C17.6972 18.242 17.668 18.262 17.6358 18.2756C17.6036 18.2892 17.569 18.2962 17.534 18.2962C17.4991 18.2962 17.4645 18.2892 17.4322 18.2756C17.4 18.262 17.3709 18.242 17.3466 18.2169L17.3466 18.2169L17.3452 18.2155L14.3154 15.1857L14.3154 15.1857L14.314 15.1843C14.2889 15.16 14.2689 15.1308 14.2553 15.0986C14.2416 15.0664 14.2346 15.0318 14.2346 14.9968C14.2346 14.9619 14.2416 14.9272 14.2553 14.895L14.1347 14.844L14.2553 14.895C14.2689 14.8628 14.2889 14.8337 14.314 14.8093Z" fill="black" stroke="black" stroke-width="0.261905"/>
<path d="M9.56779 19.375L9.56998 19.375C9.6877 19.3733 9.8 19.3253 9.88253 19.2414L11.2855 17.8384C11.3365 17.7894 11.4044 17.7621 11.4752 17.7621C11.5459 17.7621 11.6139 17.7894 11.6649 17.8384L13.0493 19.2228L13.0493 19.2228L13.0502 19.2237C13.1338 19.3057 13.2462 19.3516 13.3633 19.3516C13.4803 19.3516 13.5927 19.3057 13.6763 19.2237L13.6769 19.2232C13.7188 19.1816 13.752 19.1322 13.7748 19.0777C13.7975 19.0232 13.8091 18.9647 13.8091 18.9057C13.8091 18.8466 13.7975 18.7882 13.7748 18.7337C13.7521 18.6793 13.719 18.63 13.6772 18.5885C13.6771 18.5884 13.677 18.5883 13.6769 18.5882L12.2986 17.2035L12.2986 17.2035L12.2974 17.2024C12.0778 16.9872 11.7826 16.8666 11.4752 16.8666C11.1677 16.8666 10.8725 16.9872 10.6529 17.2024L10.6529 17.2024L10.6518 17.2035L9.2476 18.614L9.2476 18.614L9.24689 18.6148C9.16495 18.6984 9.11905 18.8108 9.11905 18.9278C9.11905 19.0449 9.16494 19.1573 9.24689 19.2409L9.24688 19.2409L9.24765 19.2416C9.33248 19.3268 9.44762 19.3747 9.56779 19.375Z" fill="black" stroke="black" stroke-width="0.261905"/>
<path d="M0.329985 0.299739V0.300211V18.8901C0.329985 19.0087 0.377102 19.1225 0.460971 19.2063C0.54484 19.2902 0.65859 19.3373 0.7772 19.3373C0.895809 19.3373 1.00956 19.2902 1.09343 19.2063C1.1773 19.1225 1.22441 19.0087 1.22441 18.8901V0.300211C1.22441 0.0396916 1.32791 -0.210158 1.51212 -0.394373C1.69634 -0.578588 1.94619 -0.68208 2.20671 -0.68208H10.7901C11.0506 -0.68208 11.3004 -0.578588 11.4847 -0.394373C11.6689 -0.210158 11.7724 0.0396916 11.7724 0.300211V12.2549C11.7724 12.3735 11.8195 12.4873 11.9033 12.5712C11.9872 12.655 12.101 12.7021 12.2196 12.7021C12.3382 12.7021 12.4519 12.655 12.5358 12.5712C12.6197 12.4873 12.6668 12.3735 12.6668 12.2549V0.300211L12.6668 0.29974C12.665 -0.197321 12.4667 -0.673512 12.1153 -1.02499C11.7638 -1.37647 11.2876 -1.57472 10.7905 -1.57651H10.7901L2.20671 -1.57651L2.20623 -1.57651C1.70917 -1.57472 1.23298 -1.37647 0.881505 -1.02499C0.530028 -0.673512 0.331777 -0.197321 0.329985 0.299739Z" fill="black" stroke="black" stroke-width="0.261905"/>
<path d="M9.80619 2.44435L9.80618 2.44355C9.8043 2.13493 9.68038 1.8396 9.46149 1.62204C9.24259 1.40448 8.94651 1.28237 8.63789 1.28238H4.34937C4.0412 1.28238 3.74565 1.4048 3.52774 1.62271C3.41984 1.73061 3.33425 1.8587 3.27586 1.99968C3.21746 2.14066 3.18741 2.29175 3.18741 2.44435V5.30336C3.18741 5.61153 3.30983 5.90708 3.52774 6.12499C3.74565 6.3429 4.0412 6.46532 4.34937 6.46532H8.63789C8.94651 6.46533 9.24259 6.34322 9.46149 6.12566C9.68038 5.9081 9.8043 5.61277 9.80618 5.30416V5.30336L9.80619 2.44435ZM8.63791 5.5709H8.63789H4.34937C4.27842 5.5709 4.21037 5.54271 4.1602 5.49254C4.11002 5.44236 4.08184 5.37431 4.08184 5.30336V2.44435C4.08184 2.37339 4.11002 2.30534 4.1602 2.25517C4.21037 2.20499 4.27842 2.17681 4.34937 2.17681H8.63789H8.63791C8.70981 2.1768 8.77882 2.20506 8.83006 2.2555C8.88108 2.30573 8.9104 2.37392 8.91175 2.44548V5.30222C8.9104 5.37378 8.88108 5.44198 8.83006 5.4922C8.77882 5.54264 8.70981 5.5709 8.63791 5.5709Z" fill="black" stroke="black" stroke-width="0.261905"/>
<path d="M3.1874 12.4701H3.18741V9.5984C3.18741 9.29022 3.30983 8.99467 3.52774 8.77676C3.74565 8.55885 4.0412 8.43643 4.34937 8.43643H8.63789C8.94651 8.43642 9.24259 8.55853 9.46149 8.77609C9.68038 8.99365 9.8043 9.28898 9.80618 9.5976L9.80619 9.5984L9.80618 12.4701V12.4725L9.80616 12.4725C9.80056 12.7786 9.67501 13.0703 9.45651 13.2848C9.23802 13.4993 8.94407 13.6194 8.63789 13.6194L3.1874 12.4701ZM3.1874 12.4701L3.18742 12.4717M3.1874 12.4701L3.18742 12.4717M3.18742 12.4717C3.19117 12.7774 3.31524 13.0693 3.53275 13.2841C3.75025 13.4989 4.04366 13.6194 4.34937 13.6194C4.34938 13.6194 4.34938 13.6194 4.34938 13.6194M3.18742 12.4717L4.34938 13.6194M4.34938 13.6194H8.63787H4.34938ZM8.63791 12.7376H8.63789H4.34937C4.27842 12.7376 4.21037 12.7094 4.1602 12.6592C4.11002 12.6091 4.08184 12.541 4.08184 12.4701V9.5984C4.08184 9.52744 4.11002 9.45939 4.1602 9.40922C4.21037 9.35905 4.27842 9.33086 4.34937 9.33086H8.63789H8.63791C8.70981 9.33085 8.77882 9.35912 8.83006 9.40955C8.88108 9.45978 8.9104 9.52798 8.91175 9.59953V12.4689C8.9104 12.5405 8.88108 12.6087 8.83006 12.6589C8.77882 12.7093 8.70981 12.7376 8.63791 12.7376Z" fill="black" stroke="black" stroke-width="0.261905"/>
<path d="M3.30667 19.2063C3.39054 19.2902 3.50429 19.3373 3.6229 19.3373C3.74151 19.3373 3.85526 19.2902 3.93913 19.2063C4.023 19.1225 4.07012 19.0087 4.07012 18.8901V16.7459C4.07012 16.6749 4.0983 16.6069 4.14848 16.5567C4.19865 16.5065 4.2667 16.4783 4.33766 16.4783H6.23523C6.35384 16.4783 6.46759 16.4312 6.55146 16.3473C6.63533 16.2635 6.68244 16.1497 6.68244 16.0311C6.68244 15.9125 6.63533 15.7987 6.55146 15.7149C6.46759 15.631 6.35384 15.5839 6.23523 15.5839H4.33766C4.02948 15.5839 3.73393 15.7063 3.51602 15.9242C3.29811 16.1421 3.17569 16.4377 3.17569 16.7459V18.8901C3.17569 19.0087 3.22281 19.1225 3.30667 19.2063Z" fill="black" stroke="black" stroke-width="0.261905"/>
</svg>
