<svg width="34" height="35" viewBox="0 0 34 35" fill="none" xmlns="http://www.w3.org/2000/svg">
<g clip-path="url(#clip0_505_220)">
<path d="M3.04225 32.209H33.4034C33.8576 32.209 34.2931 32.0286 34.6142 31.7075C34.9353 31.3864 35.1157 30.9509 35.1157 30.4968V21.5845C35.1157 21.1304 34.9353 20.6948 34.6142 20.3737C34.2931 20.0526 33.8576 19.8722 33.4034 19.8722H3.04225C2.58813 19.8722 2.15261 20.0526 1.8315 20.3737C1.51038 20.6948 1.32999 21.1304 1.32999 21.5845V30.4968C1.32999 30.9509 1.51038 31.3864 1.8315 31.7075C2.15261 32.0286 2.58813 32.209 3.04225 32.209ZM2.46395 21.0062C2.61733 20.8528 2.82535 20.7667 3.04225 20.7667H33.4034C33.6203 20.7667 33.8284 20.8528 33.9817 21.0062C34.1351 21.1596 34.2213 21.3676 34.2213 21.5845V30.4968C34.2213 30.7137 34.1351 30.9217 33.9817 31.0751C33.8284 31.2284 33.6203 31.3146 33.4034 31.3146H3.04225C2.82535 31.3146 2.61733 31.2284 2.46395 31.0751C2.31058 30.9217 2.22441 30.7137 2.22441 30.4968V21.5845C2.22441 21.3676 2.31058 21.1596 2.46395 21.0062Z" fill="black" stroke="black" stroke-width="0.261905"/>
<path d="M28.2341 22.7313V22.7314H31.0932H31.0939V22.7314C31.4026 22.7332 31.6979 22.8572 31.9155 23.076M28.2341 22.7313L31.9155 23.076M28.2341 22.7313L28.2333 22.7314M28.2341 22.7313L28.2333 22.7314M31.9155 23.076C32.133 23.2949 32.2551 23.591 32.2551 23.8996V28.1882C32.2551 28.4963 32.1327 28.7919 31.9148 29.0098C31.6969 29.2277 31.4013 29.3501 31.0932 29.3501M31.9155 23.076L31.0932 29.3501M28.2333 22.7314C27.9247 22.7332 27.6294 22.8572 27.4118 23.076C27.1943 23.2949 27.0722 23.591 27.0722 23.8996L28.2333 22.7314ZM31.0932 29.3501H28.2341C28.0815 29.3501 27.9305 29.3201 27.7895 29.2617C27.6485 29.2033 27.5204 29.1177 27.4125 29.0098C27.3046 28.9019 27.219 28.7738 27.1606 28.6328C27.1022 28.4919 27.0722 28.3408 27.0722 28.1882V23.8996L31.0932 29.3501ZM27.9666 23.9313V23.9313C27.9666 23.8594 27.9949 23.7903 28.0453 23.7391C28.0957 23.6879 28.1641 23.6586 28.2359 23.6574C28.236 23.6574 28.2361 23.6574 28.2362 23.6574L31.0927 23.6258C31.164 23.6273 31.2319 23.6566 31.282 23.7075C31.3324 23.7587 31.3607 23.8277 31.3607 23.8996V23.8996V28.2198C31.3607 28.2907 31.3325 28.3588 31.2823 28.409C31.2322 28.4591 31.1641 28.4873 31.0932 28.4873H28.2341C28.199 28.4873 28.1642 28.4804 28.1318 28.467C28.0993 28.4535 28.0698 28.4338 28.045 28.409C28.0201 28.3841 28.0004 28.3546 27.987 28.3222C27.9735 28.2897 27.9666 28.2549 27.9666 28.2198V23.9313Z" fill="black" stroke="black" stroke-width="0.261905"/>
<path d="M23.9378 29.3501V29.3501H21.0662C20.9136 29.3501 20.7625 29.3201 20.6215 29.2617C20.4805 29.2033 20.3524 29.1177 20.2445 29.0098C20.1366 28.9019 20.051 28.7738 19.9927 28.6328C19.9343 28.4919 19.9042 28.3408 19.9042 28.1882V23.8996L23.9378 29.3501ZM23.9378 29.3501L23.9394 29.3501M23.9378 29.3501L23.9394 29.3501M23.9394 29.3501C24.2451 29.3464 24.537 29.2223 24.7519 29.0048C24.9667 28.7873 25.0872 28.4939 25.0872 28.1882C25.0872 28.1882 25.0872 28.1882 25.0872 28.1882V23.8996C25.0872 23.591 24.965 23.2949 24.7475 23.076C24.5299 22.8572 24.2346 22.7332 23.926 22.7314V22.7314H23.9252H21.0662V22.7313M23.9394 29.3501L21.0662 22.7313M21.0662 22.7313L21.0654 22.7314M21.0662 22.7313L21.0654 22.7314M21.0654 22.7314C20.7568 22.7332 20.4614 22.8572 20.2439 23.076C20.0263 23.2949 19.9042 23.591 19.9042 23.8996L21.0654 22.7314ZM20.8113 23.9313V23.9313C20.8113 23.8594 20.8395 23.7903 20.89 23.7391C20.9404 23.6879 21.0088 23.6586 21.0806 23.6574C21.0807 23.6574 21.0808 23.6574 21.0809 23.6574L23.9374 23.6258C24.0087 23.6273 24.0766 23.6566 24.1267 23.7075C24.1771 23.7587 24.2054 23.8277 24.2054 23.8996V23.8996V28.2198C24.2054 28.2907 24.1772 28.3588 24.127 28.409C24.0768 28.4591 24.0088 28.4873 23.9378 28.4873H21.0788C21.0079 28.4873 20.9398 28.4591 20.8896 28.409C20.8395 28.3588 20.8113 28.2907 20.8113 28.2198V23.9313Z" fill="black" stroke="black" stroke-width="0.261905"/>
<path d="M13.9353 22.7313V22.7314H16.7943H16.7951V22.7314C17.1037 22.7332 17.3991 22.8572 17.6166 23.076M13.9353 22.7313L17.6166 23.076M13.9353 22.7313L13.9345 22.7314M13.9353 22.7313L13.9345 22.7314M17.6166 23.076C17.8342 23.2949 17.9563 23.591 17.9563 23.8996V28.1882C17.9563 28.4963 17.8339 28.7919 17.616 29.0098C17.398 29.2277 17.1025 29.3501 16.7943 29.3501M17.6166 23.076L16.7943 29.3501M13.9345 22.7314C13.6259 22.7332 13.3306 22.8572 13.113 23.076C12.8954 23.2949 12.7733 23.591 12.7733 23.8996L13.9345 22.7314ZM16.7943 29.3501H13.9353C13.7827 29.3501 13.6316 29.3201 13.4906 29.2617C13.3497 29.2033 13.2216 29.1177 13.1137 29.0098C13.0058 28.9019 12.9202 28.7738 12.8618 28.6328C12.8034 28.4919 12.7733 28.3408 12.7733 28.1882V23.8996L16.7943 29.3501ZM13.6678 23.9313V23.9313C13.6678 23.8594 13.696 23.7903 13.7465 23.7391C13.7968 23.6879 13.8653 23.6586 13.9371 23.6574C13.9372 23.6574 13.9373 23.6574 13.9374 23.6574L16.7939 23.6258C16.8652 23.6273 16.9331 23.6566 16.9832 23.7075C17.0336 23.7587 17.0619 23.8277 17.0619 23.8996V23.8996V28.2198C17.0619 28.2907 17.0337 28.3588 16.9835 28.409C16.9333 28.4591 16.8653 28.4873 16.7943 28.4873H13.9353C13.8644 28.4873 13.7963 28.4591 13.7461 28.409C13.696 28.3588 13.6678 28.2907 13.6678 28.2198V23.9313Z" fill="black" stroke="black" stroke-width="0.261905"/>
<path d="M7.49772 27.9206L7.49819 27.9206C7.99525 27.9188 8.47145 27.7205 8.82292 27.3691C9.1744 27.0176 9.37265 26.5414 9.37444 26.0443V26.0439C9.37444 25.6727 9.26438 25.3098 9.05816 25.0012C8.85194 24.6926 8.55884 24.452 8.21591 24.31C7.87299 24.168 7.49564 24.1308 7.13159 24.2032C6.76754 24.2756 6.43314 24.4544 6.17068 24.7168C5.90822 24.9793 5.72948 25.3137 5.65706 25.6777C5.58465 26.0418 5.62181 26.4191 5.76386 26.7621C5.9059 27.105 6.14645 27.3981 6.45507 27.6043C6.7637 27.8105 7.12654 27.9206 7.49772 27.9206ZM6.95199 25.2271C7.11353 25.1192 7.30344 25.0616 7.49772 25.0616C7.75824 25.0616 8.00809 25.1651 8.19231 25.3493C8.37652 25.5335 8.48001 25.7833 8.48001 26.0439C8.48001 26.2381 8.4224 26.4281 8.31447 26.5896C8.20653 26.7511 8.05312 26.877 7.87363 26.9514C7.69414 27.0257 7.49663 27.0452 7.30609 27.0073C7.11554 26.9694 6.94051 26.8758 6.80314 26.7385C6.66576 26.6011 6.57221 26.426 6.53431 26.2355C6.4964 26.045 6.51586 25.8474 6.5902 25.668C6.66455 25.4885 6.79045 25.3351 6.95199 25.2271Z" fill="black" stroke="black" stroke-width="0.261905"/>
<path d="M22.4058 19.2216L22.4056 19.2217L22.4118 19.2274C22.4968 19.3045 22.6069 19.348 22.7215 19.3499C22.78 19.3543 22.8388 19.3475 22.8947 19.3298C22.9524 19.3116 23.0059 19.2822 23.0522 19.2433L23.0525 19.2437L23.0605 19.2357L30.0183 12.2779L30.0188 12.2774C30.3686 11.9237 30.5649 11.4462 30.5649 10.9487C30.5649 10.4512 30.3686 9.97374 30.0188 9.62002L30.018 9.61928L23.9205 3.55336L23.9202 3.5531C23.5665 3.20323 23.0891 3.00699 22.5915 3.00699C22.094 3.00699 21.6166 3.20323 21.2629 3.5531L21.2623 3.55362L6.25887 18.5634C6.25886 18.5634 6.25886 18.5634 6.25885 18.5634C6.17559 18.6467 6.12881 18.7596 6.12881 18.8774C6.12881 18.9952 6.1756 19.1081 6.25887 19.1914C6.34214 19.2746 6.45508 19.3214 6.57285 19.3214C6.69061 19.3214 6.80354 19.2747 6.88681 19.1914C6.88682 19.1914 6.88682 19.1914 6.88683 19.1914L21.8966 4.18791L21.8967 4.18785C21.9879 4.09656 22.0962 4.02413 22.2154 3.97472C22.3347 3.92531 22.4625 3.89987 22.5915 3.89987C22.7206 3.89987 22.8484 3.92531 22.9676 3.97472C23.0869 4.02413 23.1952 4.09656 23.2864 4.18786L23.2866 4.18808L29.365 10.2412C29.365 10.2412 29.3651 10.2412 29.3651 10.2412C29.4564 10.3325 29.5288 10.4408 29.5782 10.56C29.6276 10.6792 29.653 10.807 29.653 10.936C29.653 11.0651 29.6276 11.1929 29.5782 11.3121C29.5288 11.4314 29.4563 11.5397 29.365 11.6309L29.365 11.6309L22.4072 18.5887L22.4058 18.5902C22.3238 18.6748 22.2779 18.788 22.2779 18.9059C22.2779 19.0237 22.3238 19.1369 22.4058 19.2216Z" fill="black" stroke="black" stroke-width="0.261905"/>
<path d="M22.7783 13.8281L22.7784 13.828L19.7423 10.7919L19.7415 10.7911C19.5266 10.5726 19.4062 10.2784 19.4062 9.97186C19.4062 9.66536 19.5266 9.37115 19.7415 9.15263L19.7423 9.15186L19.7423 9.15186L21.7664 7.12778L21.7684 7.12577L21.7684 7.1258C21.9894 6.91418 22.2836 6.79605 22.5895 6.79605C22.8955 6.79605 23.1897 6.91418 23.4107 7.1258L23.4127 7.12776L23.4127 7.12778L26.4423 10.1574C26.4423 10.1574 26.4424 10.1575 26.4424 10.1575L26.4425 10.1576L22.7783 13.8281ZM22.7783 13.8281L22.7824 13.8318C23.0043 14.0355 23.2974 14.1434 23.5982 14.1321L22.7783 13.8281ZM22.4005 7.73059L22.4005 7.7306L22.4018 7.72928C22.4506 7.67922 22.5171 7.65028 22.587 7.64863C22.6588 7.64964 22.7274 7.67882 22.7779 7.72992L22.7779 7.72992L22.7785 7.73054L25.8137 10.7594C25.8627 10.8104 25.89 10.8784 25.89 10.9491C25.89 11.0198 25.8627 11.0878 25.8137 11.1388L23.7904 13.1621L23.7904 13.1621L23.7891 13.1635C23.7647 13.1886 23.7356 13.2085 23.7034 13.2222C23.6712 13.2358 23.6365 13.2428 23.6016 13.2428C23.5666 13.2428 23.532 13.2358 23.4998 13.2222L23.4487 13.3428L23.4998 13.2222C23.4676 13.2085 23.4384 13.1886 23.4141 13.1635L23.4141 13.1635L23.4127 13.1621L20.3766 10.1259L20.3766 10.1259L20.3752 10.1246C20.3501 10.1002 20.3301 10.0711 20.3165 10.0389C20.3029 10.0067 20.2958 9.97204 20.2958 9.93707C20.2958 9.9021 20.3029 9.86749 20.3165 9.83528C20.3301 9.80308 20.3501 9.77394 20.3752 9.74959L20.3752 9.7496L20.3764 9.74834L22.4005 7.73059Z" fill="black" stroke="black" stroke-width="0.261905"/>
<path d="M18.5374 19.1918C18.3846 19.1924 18.2333 19.1624 18.0923 19.1036C17.9514 19.0448 17.8237 18.9583 17.7168 18.8493C17.7166 18.8492 17.7164 18.849 17.7163 18.8489L14.6814 15.814C14.6814 15.814 14.6813 15.8139 14.6813 15.8139C14.5731 15.7065 14.4872 15.5787 14.4286 15.438C14.3699 15.2972 14.3398 15.1462 14.3398 14.9937C14.3398 14.8411 14.3699 14.6901 14.4286 14.5493C14.4872 14.4086 14.5731 14.2809 14.6813 14.1735C14.6813 14.1734 14.6814 14.1734 14.6814 14.1733L16.7048 12.1499C16.7049 12.1499 16.7049 12.1498 16.705 12.1498C16.8124 12.0416 16.9401 11.9557 17.0808 11.8971C17.2216 11.8384 17.3726 11.8083 17.5252 11.8083C17.6777 11.8083 17.8287 11.8384 17.9695 11.8971C18.1102 11.9557 18.238 12.0416 18.3454 12.1498C18.3454 12.1498 18.3455 12.1499 18.3455 12.1499L21.3803 15.1848C21.3805 15.1849 21.3807 15.1851 21.3808 15.1853C21.4898 15.2922 21.5763 15.4199 21.6351 15.5608C21.6939 15.7017 21.7238 15.8529 21.7232 16.0055M18.5374 19.1918C18.69 19.192 18.8411 19.1618 18.9819 19.1031C19.1227 19.0443 19.2504 18.9581 19.3575 18.8495C19.3576 18.8494 19.3577 18.8492 19.3579 18.8491L21.3807 16.8263C21.49 16.7195 21.5767 16.5918 21.6356 16.4508C21.6944 16.3098 21.7243 16.1583 21.7232 16.0055M18.5374 19.1918C18.5372 19.1918 18.5371 19.1918 18.5369 19.1918L18.5372 19.0608L18.5378 19.1917C18.5377 19.1917 18.5375 19.1918 18.5374 19.1918ZM21.7232 16.0055C21.7232 16.0053 21.7232 16.005 21.7232 16.0048L21.5923 16.0057L21.7232 16.0063C21.7232 16.006 21.7232 16.0058 21.7232 16.0055ZM15.314 14.8093L15.314 14.8094L15.3155 14.8078L17.3325 12.7845C17.3849 12.7337 17.4542 12.7044 17.527 12.702H17.5315V12.7022L17.5367 12.7019C17.6061 12.6992 17.6741 12.7211 17.7287 12.7637L20.7533 15.7884L20.7533 15.7884L20.7543 15.7893C20.7797 15.8142 20.7999 15.8439 20.8137 15.8768C20.8275 15.9096 20.8346 15.9448 20.8346 15.9804C20.8346 16.016 20.8275 16.0512 20.8137 16.084C20.7999 16.1169 20.7797 16.1466 20.7543 16.1715L20.7543 16.1715L20.753 16.1727L18.7226 18.2158L18.7226 18.2158L18.7215 18.2169C18.6972 18.242 18.668 18.262 18.6358 18.2756C18.6036 18.2892 18.569 18.2962 18.534 18.2962C18.4991 18.2962 18.4645 18.2892 18.4322 18.2756C18.4 18.262 18.3709 18.242 18.3466 18.2169L18.3466 18.2169L18.3452 18.2155L15.3154 15.1857L15.3154 15.1857L15.314 15.1843C15.2889 15.16 15.2689 15.1308 15.2553 15.0986C15.2416 15.0664 15.2346 15.0318 15.2346 14.9968C15.2346 14.9619 15.2416 14.9272 15.2553 14.895L15.1347 14.844L15.2553 14.895C15.2689 14.8628 15.2889 14.8337 15.314 14.8093Z" fill="black" stroke="black" stroke-width="0.261905"/>
<path d="M10.5678 19.375L10.57 19.375C10.6877 19.3733 10.8 19.3253 10.8825 19.2414L12.2855 17.8384C12.3365 17.7894 12.4044 17.7621 12.4752 17.7621C12.5459 17.7621 12.6139 17.7894 12.6649 17.8384L14.0493 19.2228L14.0493 19.2228L14.0502 19.2237C14.1338 19.3057 14.2462 19.3516 14.3633 19.3516C14.4803 19.3516 14.5927 19.3057 14.6763 19.2237L14.6769 19.2232C14.7188 19.1816 14.752 19.1322 14.7748 19.0777C14.7975 19.0232 14.8091 18.9647 14.8091 18.9057C14.8091 18.8466 14.7975 18.7882 14.7748 18.7337C14.7521 18.6793 14.719 18.63 14.6772 18.5885C14.6771 18.5884 14.677 18.5883 14.6769 18.5882L13.2986 17.2035L13.2986 17.2035L13.2974 17.2024C13.0778 16.9872 12.7826 16.8666 12.4752 16.8666C12.1677 16.8666 11.8725 16.9872 11.6529 17.2024L11.6529 17.2024L11.6518 17.2035L10.2476 18.614L10.2476 18.614L10.2469 18.6148C10.1649 18.6984 10.119 18.8108 10.119 18.9278C10.119 19.0449 10.1649 19.1573 10.2469 19.2409L10.2469 19.2409L10.2476 19.2416C10.3325 19.3268 10.4476 19.3747 10.5678 19.375Z" fill="black" stroke="black" stroke-width="0.261905"/>
<path d="M1.32999 0.299739V0.300211V18.8901C1.32999 19.0087 1.3771 19.1225 1.46097 19.2063C1.54484 19.2902 1.65859 19.3373 1.7772 19.3373C1.89581 19.3373 2.00956 19.2902 2.09343 19.2063C2.1773 19.1225 2.22441 19.0087 2.22441 18.8901V0.300211C2.22441 0.0396916 2.32791 -0.210158 2.51212 -0.394373C2.69634 -0.578588 2.94619 -0.68208 3.20671 -0.68208H11.7901C12.0506 -0.68208 12.3004 -0.578588 12.4847 -0.394373C12.6689 -0.210158 12.7724 0.0396916 12.7724 0.300211V12.2549C12.7724 12.3735 12.8195 12.4873 12.9033 12.5712C12.9872 12.655 13.101 12.7021 13.2196 12.7021C13.3382 12.7021 13.4519 12.655 13.5358 12.5712C13.6197 12.4873 13.6668 12.3735 13.6668 12.2549V0.300211L13.6668 0.29974C13.665 -0.197321 13.4667 -0.673512 13.1153 -1.02499C12.7638 -1.37647 12.2876 -1.57472 11.7905 -1.57651H11.7901L3.20671 -1.57651L3.20623 -1.57651C2.70917 -1.57472 2.23298 -1.37647 1.88151 -1.02499C1.53003 -0.673512 1.33178 -0.197321 1.32999 0.299739Z" fill="black" stroke="black" stroke-width="0.261905"/>
<path d="M10.8062 2.44435L10.8062 2.44355C10.8043 2.13493 10.6804 1.8396 10.4615 1.62204C10.2426 1.40448 9.94651 1.28237 9.63789 1.28238H5.34937C5.0412 1.28238 4.74565 1.4048 4.52774 1.62271C4.41984 1.73061 4.33425 1.8587 4.27586 1.99968C4.21746 2.14066 4.18741 2.29175 4.18741 2.44435V5.30336C4.18741 5.61153 4.30983 5.90708 4.52774 6.12499C4.74565 6.3429 5.0412 6.46532 5.34937 6.46532H9.63789C9.94651 6.46533 10.2426 6.34322 10.4615 6.12566C10.6804 5.9081 10.8043 5.61277 10.8062 5.30416V5.30336L10.8062 2.44435ZM9.63791 5.5709H9.63789H5.34937C5.27842 5.5709 5.21037 5.54271 5.1602 5.49254C5.11002 5.44236 5.08184 5.37431 5.08184 5.30336V2.44435C5.08184 2.37339 5.11002 2.30534 5.1602 2.25517C5.21037 2.20499 5.27842 2.17681 5.34937 2.17681H9.63789H9.63791C9.70981 2.1768 9.77882 2.20506 9.83006 2.2555C9.88108 2.30573 9.9104 2.37392 9.91175 2.44548V5.30222C9.9104 5.37378 9.88108 5.44198 9.83006 5.4922C9.77882 5.54264 9.70981 5.5709 9.63791 5.5709Z" fill="black" stroke="black" stroke-width="0.261905"/>
<path d="M4.1874 12.4701H4.18741V9.5984C4.18741 9.29022 4.30983 8.99467 4.52774 8.77676C4.74565 8.55885 5.0412 8.43643 5.34937 8.43643H9.63789C9.94651 8.43642 10.2426 8.55853 10.4615 8.77609C10.6804 8.99365 10.8043 9.28898 10.8062 9.5976L10.8062 9.5984L10.8062 12.4701V12.4725L10.8062 12.4725C10.8006 12.7786 10.675 13.0703 10.4565 13.2848C10.238 13.4993 9.94407 13.6194 9.63789 13.6194L4.1874 12.4701ZM4.1874 12.4701L4.18742 12.4717M4.1874 12.4701L4.18742 12.4717M4.18742 12.4717C4.19117 12.7774 4.31524 13.0693 4.53275 13.2841C4.75025 13.4989 5.04366 13.6194 5.34937 13.6194C5.34938 13.6194 5.34938 13.6194 5.34938 13.6194M4.18742 12.4717L5.34938 13.6194M5.34938 13.6194H9.63787H5.34938ZM9.63791 12.7376H9.63789H5.34937C5.27842 12.7376 5.21037 12.7094 5.1602 12.6592C5.11002 12.6091 5.08184 12.541 5.08184 12.4701V9.5984C5.08184 9.52744 5.11002 9.45939 5.1602 9.40922C5.21037 9.35905 5.27842 9.33086 5.34937 9.33086H9.63789H9.63791C9.70981 9.33085 9.77882 9.35912 9.83006 9.40955C9.88108 9.45978 9.9104 9.52798 9.91175 9.59953V12.4689C9.9104 12.5405 9.88108 12.6087 9.83006 12.6589C9.77882 12.7093 9.70981 12.7376 9.63791 12.7376Z" fill="black" stroke="black" stroke-width="0.261905"/>
<path d="M4.30667 19.2063C4.39054 19.2902 4.50429 19.3373 4.6229 19.3373C4.74151 19.3373 4.85526 19.2902 4.93913 19.2063C5.023 19.1225 5.07012 19.0087 5.07012 18.8901V16.7459C5.07012 16.6749 5.0983 16.6069 5.14848 16.5567C5.19865 16.5065 5.2667 16.4783 5.33766 16.4783H7.23523C7.35384 16.4783 7.46759 16.4312 7.55146 16.3473C7.63533 16.2635 7.68244 16.1497 7.68244 16.0311C7.68244 15.9125 7.63533 15.7987 7.55146 15.7149C7.46759 15.631 7.35384 15.5839 7.23523 15.5839H5.33766C5.02948 15.5839 4.73393 15.7063 4.51602 15.9242C4.29811 16.1421 4.17569 16.4377 4.17569 16.7459V18.8901C4.17569 19.0087 4.22281 19.1225 4.30667 19.2063Z" fill="black" stroke="black" stroke-width="0.261905"/>
</g>
<defs>
<clipPath id="clip0_505_220">
<rect width="33.5238" height="33.5238" fill="white" transform="translate(0.464844 0.553955)"/>
</clipPath>
</defs>
</svg>
