<svg width="34" height="34" viewBox="0 0 34 34" fill="none" xmlns="http://www.w3.org/2000/svg">
<g clip-path="url(#clip0_505_170)">
<path d="M0.459817 33.7977H33.3511C33.4697 33.7977 33.5835 33.7505 33.6673 33.6667C33.7512 33.5828 33.7983 33.4691 33.7983 33.3504C33.7983 33.2318 33.7512 33.1181 33.6673 33.0342C33.5835 32.9503 33.4697 32.9032 33.3511 32.9032H0.459817C0.341209 32.9032 0.227458 32.9503 0.143588 33.0342C0.0597194 33.1181 0.0126023 33.2318 0.0126023 33.3504C0.0126023 33.4691 0.0597194 33.5828 0.143588 33.6667C0.227458 33.7505 0.341209 33.7977 0.459817 33.7977Z" fill="black" stroke="black" stroke-width="0.261905"/>
<path d="M33.352 9.12912C33.4454 9.12882 33.5363 9.09931 33.6121 9.0447C33.6883 8.98982 33.7452 8.91237 33.7749 8.82333L33.6507 8.78191L33.7749 8.82332C33.8046 8.73428 33.8055 8.63815 33.7775 8.54856L33.6525 8.5876L33.7775 8.54855C33.7496 8.45916 33.6943 8.38079 33.6194 8.3245C33.6193 8.32438 33.6191 8.32425 33.6189 8.32413L22.867 0.102052L22.867 0.102039L22.8653 0.100802C22.7881 0.0436407 22.6947 0.0125002 22.5985 0.0118699H22.5977L11.2122 0.0118671L11.2114 0.0118727C11.1153 0.0125002 11.0219 0.0436409 10.9446 0.100802L10.9446 0.100789L10.9429 0.102052L0.190022 8.32487L0.190018 8.32486L0.188978 8.32568C0.0965719 8.39783 0.0356947 8.50296 0.0191149 8.61902C0.0025351 8.73507 0.0315408 8.85304 0.100049 8.94818L0.0999686 8.94824L0.1031 8.95225C0.175251 9.04466 0.28038 9.10553 0.396438 9.12211L0.414959 8.99248L0.39644 9.12212C0.512498 9.13869 0.630468 9.10969 0.725606 9.04118L0.725638 9.04122L0.728629 9.03894L11.3641 0.906299H22.4458L33.0801 9.03797C33.0803 9.03814 33.0805 9.0383 33.0807 9.03847C33.1581 9.09889 33.2539 9.13089 33.352 9.12912ZM33.352 9.12912C33.3516 9.12912 33.3511 9.12912 33.3506 9.12912V8.99817L33.3534 9.12909C33.3529 9.1291 33.3525 9.12911 33.352 9.12912Z" fill="black" stroke="black" stroke-width="0.261905"/>
<path d="M1.72447 33.798H32.0857C32.2043 33.798 32.318 33.7509 32.4019 33.667C32.4858 33.5831 32.5329 33.4694 32.5329 33.3508V7.7335C32.5329 7.61489 32.4858 7.50114 32.4019 7.41727C32.318 7.3334 32.2043 7.28628 32.0857 7.28628C31.9671 7.28628 31.8533 7.3334 31.7694 7.41727C31.6856 7.50114 31.6384 7.61489 31.6384 7.7335V32.9035H2.17168V7.7335C2.17168 7.61489 2.12456 7.50114 2.04069 7.41727C1.95682 7.3334 1.84307 7.28628 1.72447 7.28628C1.60586 7.28628 1.49211 7.3334 1.40824 7.41727C1.32437 7.50114 1.27725 7.61489 1.27725 7.7335V33.3508C1.27725 33.4694 1.32437 33.5831 1.40824 33.667C1.49211 33.7509 1.60586 33.798 1.72447 33.798Z" fill="black" stroke="black" stroke-width="0.261905"/>
<path d="M13.744 33.798H20.0692C20.1879 33.798 20.3016 33.7509 20.3855 33.667C20.4693 33.5832 20.5165 33.4694 20.5165 33.3508V21.3328C20.5165 21.0465 20.4027 20.7718 20.2002 20.5693C19.9977 20.3668 19.7231 20.2531 19.4367 20.2531H14.3765C14.0902 20.2531 13.8155 20.3668 13.613 20.5693C13.4105 20.7718 13.2968 21.0465 13.2968 21.3328V33.3508C13.2968 33.4694 13.3439 33.5832 13.4278 33.667C13.5116 33.7509 13.6254 33.798 13.744 33.798ZM19.622 21.3328V32.9036H14.1912V21.3328C14.1912 21.2837 14.2107 21.2365 14.2455 21.2018C14.2802 21.167 14.3274 21.1475 14.3765 21.1475H19.4367C19.4859 21.1475 19.533 21.167 19.5678 21.2018C19.6025 21.2365 19.622 21.2837 19.622 21.3328Z" fill="black" stroke="black" stroke-width="0.261905"/>
<path d="M13.744 17.3521H20.0692C20.1879 17.3521 20.3016 17.3049 20.3855 17.2211C20.4693 17.1372 20.5165 17.0235 20.5165 16.9049V9.94708C20.5165 9.66071 20.4027 9.38608 20.2002 9.18359C19.9977 8.9811 19.7231 8.86734 19.4367 8.86734H14.3765C14.0902 8.86734 13.8155 8.9811 13.613 9.18359C13.4105 9.38608 13.2968 9.66071 13.2968 9.94708V16.9049C13.2968 17.0235 13.3439 17.1372 13.4278 17.2211C13.5116 17.3049 13.6254 17.3521 13.744 17.3521ZM19.622 9.94708V16.4576H14.1912V9.94708C14.1912 9.89793 14.2107 9.8508 14.2455 9.81604C14.2802 9.78129 14.3274 9.76177 14.3765 9.76177H19.4367C19.4859 9.76177 19.533 9.78129 19.5678 9.81604C19.6025 9.8508 19.622 9.89793 19.622 9.94708Z" fill="black" stroke="black" stroke-width="0.261905"/>
<path d="M18.1706 29.054C18.5923 29.054 18.9341 28.7121 18.9341 28.2905C18.9341 27.8688 18.5923 27.527 18.1706 27.527C17.749 27.527 17.4071 27.8688 17.4071 28.2905C17.4071 28.7121 17.749 29.054 18.1706 29.054Z" fill="black" stroke="black" stroke-width="0.261905"/>
<path d="M23.2323 28.7378H29.5575C29.6761 28.7378 29.7899 28.6907 29.8738 28.6068C29.9576 28.523 30.0047 28.4092 30.0047 28.2906V21.3328C30.0047 21.0465 29.891 20.7718 29.6885 20.5693C29.486 20.3668 29.2114 20.2531 28.925 20.2531H23.8648C23.5784 20.2531 23.3038 20.3668 23.1013 20.5693C22.8988 20.7718 22.7851 21.0465 22.7851 21.3328V28.2906C22.7851 28.4092 22.8322 28.523 22.916 28.6068C22.9999 28.6907 23.1137 28.7378 23.2323 28.7378ZM29.1103 21.3328V27.8434H23.6795V21.3328C23.6795 21.2837 23.699 21.2365 23.7338 21.2018C23.7685 21.167 23.8157 21.1475 23.8648 21.1475H28.925C28.9741 21.1475 29.0213 21.167 29.056 21.2018C29.0908 21.2365 29.1103 21.2837 29.1103 21.3328Z" fill="black" stroke="black" stroke-width="0.261905"/>
<path d="M29.8738 23.5464L29.7814 23.6388L29.8738 23.5464C29.7899 23.4626 29.6761 23.4154 29.5575 23.4154H23.2323C23.1137 23.4154 22.9999 23.4626 22.916 23.5464C22.8322 23.6303 22.7851 23.744 22.7851 23.8626C22.7851 23.9813 22.8322 24.095 22.916 24.1789C22.9999 24.2627 23.1137 24.3099 23.2323 24.3099H29.5575C29.6761 24.3099 29.7899 24.2627 29.8738 24.1789C29.9576 24.095 30.0047 23.9813 30.0047 23.8626C30.0047 23.744 29.9576 23.6303 29.8738 23.5464Z" fill="black" stroke="black" stroke-width="0.261905"/>
<path d="M4.25474 28.7378H10.58C10.6986 28.7378 10.8123 28.6907 10.8962 28.6068C10.9801 28.523 11.0272 28.4092 11.0272 28.2906V21.3328C11.0272 21.0465 10.9134 20.7718 10.711 20.5693C10.5085 20.3668 10.2338 20.2531 9.94746 20.2531H4.88726C4.6009 20.2531 4.32626 20.3668 4.12377 20.5693C3.92128 20.7718 3.80752 21.0465 3.80752 21.3328V28.2906C3.80752 28.4092 3.85464 28.523 3.93851 28.6068C4.02238 28.6907 4.13613 28.7378 4.25474 28.7378ZM10.1328 21.3328V27.8434H4.70195V21.3328C4.70195 21.2837 4.72148 21.2365 4.75623 21.2018C4.79098 21.167 4.83812 21.1475 4.88726 21.1475H9.94746C9.99661 21.1475 10.0437 21.167 10.0785 21.2018C10.1132 21.2365 10.1328 21.2837 10.1328 21.3328Z" fill="black" stroke="black" stroke-width="0.261905"/>
<path d="M10.8962 23.5464L10.8039 23.6388L10.8962 23.5464C10.8123 23.4626 10.6986 23.4154 10.58 23.4154H4.25474C4.13613 23.4154 4.02238 23.4626 3.93851 23.5464L4.03111 23.639L3.93851 23.5464C3.85464 23.6303 3.80752 23.744 3.80752 23.8626C3.80752 23.9813 3.85464 24.095 3.93851 24.1789C4.02238 24.2627 4.13613 24.3099 4.25474 24.3099H10.58C10.6986 24.3099 10.8123 24.2627 10.8962 24.1789C10.9801 24.095 11.0272 23.9813 11.0272 23.8626C11.0272 23.744 10.9801 23.6303 10.8962 23.5464Z" fill="black" stroke="black" stroke-width="0.261905"/>
<path d="M22.9139 28.7376H29.8717C29.9903 28.7376 30.104 28.6905 30.1879 28.6066C30.2718 28.5227 30.3189 28.409 30.3189 28.2904C30.3189 28.1718 30.2718 28.058 30.1879 27.9742C30.104 27.8903 29.9903 27.8432 29.8717 27.8432H22.9139C22.7953 27.8432 22.6816 27.8903 22.5977 27.9742C22.5138 28.058 22.4667 28.1718 22.4667 28.2904C22.4667 28.409 22.5138 28.5227 22.5977 28.6066C22.6816 28.6905 22.7953 28.7376 22.9139 28.7376Z" fill="black" stroke="black" stroke-width="0.261905"/>
<path d="M3.93833 28.7376H10.8961C11.0147 28.7376 11.1285 28.6905 11.2123 28.6066C11.2962 28.5227 11.3433 28.409 11.3433 28.2904C11.3433 28.1718 11.2962 28.058 11.2123 27.9742C11.1285 27.8903 11.0147 27.8432 10.8961 27.8432H3.93833C3.81972 27.8432 3.70597 27.8903 3.6221 27.9742L3.7147 28.0668L3.6221 27.9742C3.53824 28.058 3.49112 28.1718 3.49112 28.2904C3.49112 28.409 3.53824 28.5227 3.6221 28.6066C3.70597 28.6905 3.81972 28.7376 3.93833 28.7376Z" fill="black" stroke="black" stroke-width="0.261905"/>
<path d="M4.25474 17.3521H10.58C10.6986 17.3521 10.8123 17.3049 10.8962 17.2211C10.9801 17.1372 11.0272 17.0235 11.0272 16.9049V9.94708C11.0272 9.66071 10.9134 9.38608 10.711 9.18359C10.5085 8.9811 10.2338 8.86734 9.94746 8.86734H4.88726C4.6009 8.86734 4.32626 8.9811 4.12377 9.18359C3.92128 9.38608 3.80752 9.66071 3.80752 9.94708V16.9049C3.80752 17.0235 3.85464 17.1372 3.93851 17.2211C4.02238 17.3049 4.13613 17.3521 4.25474 17.3521ZM10.1328 9.94708V16.4576H4.70195V9.94708C4.70195 9.89793 4.72148 9.8508 4.75623 9.81604C4.79098 9.78129 4.83812 9.76177 4.88726 9.76177H9.94746C9.99661 9.76177 10.0437 9.78129 10.0785 9.81604C10.1132 9.8508 10.1328 9.89793 10.1328 9.94708Z" fill="black" stroke="black" stroke-width="0.261905"/>
<path d="M10.8962 12.1607L10.8039 12.253L10.8962 12.1607C10.8123 12.0768 10.6986 12.0297 10.58 12.0297H4.25474C4.13613 12.0297 4.02238 12.0768 3.93851 12.1607L4.03111 12.2533L3.93851 12.1607C3.85464 12.2445 3.80752 12.3583 3.80752 12.4769C3.80752 12.5955 3.85464 12.7093 3.93851 12.7931C4.02238 12.877 4.13613 12.9241 4.25474 12.9241H10.58C10.6986 12.9241 10.8123 12.877 10.8962 12.7931C10.9801 12.7093 11.0272 12.5955 11.0272 12.4769C11.0272 12.3583 10.9801 12.2445 10.8962 12.1607Z" fill="black" stroke="black" stroke-width="0.261905"/>
<path d="M3.93833 17.3521H10.8961C11.0147 17.3521 11.1285 17.305 11.2123 17.2211C11.2962 17.1372 11.3433 17.0235 11.3433 16.9049C11.3433 16.7863 11.2962 16.6725 11.2123 16.5887C11.1285 16.5048 11.0147 16.4577 10.8961 16.4577H3.93833C3.81972 16.4577 3.70597 16.5048 3.6221 16.5887L3.7147 16.6813L3.6221 16.5887C3.53824 16.6725 3.49112 16.7863 3.49112 16.9049C3.49112 17.0235 3.53824 17.1372 3.6221 17.2211C3.70597 17.305 3.81972 17.3521 3.93833 17.3521Z" fill="black" stroke="black" stroke-width="0.261905"/>
<path d="M23.2323 17.3521H29.5575C29.6761 17.3521 29.7899 17.3049 29.8738 17.2211C29.9576 17.1372 30.0047 17.0235 30.0047 16.9049V9.94708C30.0047 9.66071 29.891 9.38608 29.6885 9.18359C29.486 8.9811 29.2114 8.86734 28.925 8.86734H23.8648C23.5784 8.86734 23.3038 8.9811 23.1013 9.18359C22.8988 9.38608 22.7851 9.66071 22.7851 9.94708V16.9049C22.7851 17.0235 22.8322 17.1372 22.916 17.2211C22.9999 17.3049 23.1137 17.3521 23.2323 17.3521ZM29.1103 9.94708V16.4576H23.6795V9.94708C23.6795 9.89793 23.699 9.8508 23.7338 9.81604C23.7685 9.78129 23.8157 9.76177 23.8648 9.76177H28.925C28.9741 9.76177 29.0213 9.78129 29.056 9.81604C29.0908 9.8508 29.1103 9.89793 29.1103 9.94708Z" fill="black" stroke="black" stroke-width="0.261905"/>
<path d="M29.8738 12.1607L29.7814 12.253L29.8738 12.1607C29.7899 12.0768 29.6761 12.0297 29.5575 12.0297H23.2323C23.1137 12.0297 22.9999 12.0768 22.916 12.1607C22.8322 12.2445 22.7851 12.3583 22.7851 12.4769C22.7851 12.5955 22.8322 12.7093 22.916 12.7931C22.9999 12.877 23.1137 12.9241 23.2323 12.9241H29.5575C29.6761 12.9241 29.7899 12.877 29.8738 12.7931C29.9576 12.7093 30.0047 12.5955 30.0047 12.4769C30.0047 12.3583 29.9576 12.2445 29.8738 12.1607Z" fill="black" stroke="black" stroke-width="0.261905"/>
<path d="M20.3855 12.1607L20.2931 12.253L20.3855 12.1607C20.3016 12.0768 20.1879 12.0297 20.0692 12.0297H13.744C13.6254 12.0297 13.5116 12.0768 13.4278 12.1607C13.3439 12.2445 13.2968 12.3583 13.2968 12.4769C13.2968 12.5955 13.3439 12.7093 13.4278 12.7931C13.5116 12.877 13.6254 12.9241 13.744 12.9241H20.0692C20.1879 12.9241 20.3016 12.877 20.3855 12.7931C20.4693 12.7093 20.5165 12.5955 20.5165 12.4769C20.5165 12.3583 20.4693 12.2445 20.3855 12.1607Z" fill="black" stroke="black" stroke-width="0.261905"/>
<path d="M22.9139 17.3521H29.8717C29.9903 17.3521 30.104 17.305 30.1879 17.2211C30.2718 17.1372 30.3189 17.0235 30.3189 16.9049C30.3189 16.7863 30.2718 16.6725 30.1879 16.5887C30.104 16.5048 29.9903 16.4577 29.8717 16.4577H22.9139C22.7953 16.4577 22.6816 16.5048 22.5977 16.5887C22.5138 16.6725 22.4667 16.7863 22.4667 16.9049C22.4667 17.0235 22.5138 17.1372 22.5977 17.2211C22.6816 17.305 22.7953 17.3521 22.9139 17.3521Z" fill="black" stroke="black" stroke-width="0.261905"/>
<path d="M13.4256 17.3521H20.3834C20.502 17.3521 20.6158 17.305 20.6996 17.2211C20.7835 17.1372 20.8306 17.0235 20.8306 16.9049C20.8306 16.7863 20.7835 16.6725 20.6996 16.5887C20.6158 16.5048 20.502 16.4577 20.3834 16.4577H13.4256C13.307 16.4577 13.1933 16.5048 13.1094 16.5887C13.0255 16.6725 12.9784 16.7863 12.9784 16.9049C12.9784 17.0235 13.0255 17.1372 13.1094 17.2211C13.1933 17.305 13.307 17.3521 13.4256 17.3521Z" fill="black" stroke="black" stroke-width="0.261905"/>
</g>
<defs>
<clipPath id="clip0_505_170">
<rect width="33.5238" height="33.5238" fill="white" transform="translate(0.141602 0.142578)"/>
</clipPath>
</defs>
</svg>
