<svg width="35" height="35" viewBox="0 0 35 35" fill="none" xmlns="http://www.w3.org/2000/svg">
<g clip-path="url(#clip0_506_245)">
<path d="M25.5686 16.7189H26.8337C27.2878 16.7189 27.7233 16.5385 28.0444 16.2174C28.3655 15.8963 28.5459 15.4608 28.5459 15.0067V12.4766C28.5459 12.0225 28.3655 11.5869 28.0444 11.2658C27.7233 10.9447 27.2878 10.7643 26.8337 10.7643H25.5686C25.1145 10.7643 24.679 10.9447 24.3579 11.2658C24.0367 11.5869 23.8564 12.0225 23.8564 12.4766V15.0067C23.8564 15.4608 24.0367 15.8963 24.3579 16.2174C24.679 16.5385 25.1145 16.7189 25.5686 16.7189ZM24.9903 11.8983C25.1437 11.7449 25.3517 11.6587 25.5686 11.6587H26.8337C27.0506 11.6587 27.2586 11.7449 27.412 11.8983C27.5653 12.0517 27.6515 12.2597 27.6515 12.4766V15.0067C27.6515 15.2236 27.5653 15.4316 27.412 15.585C27.2586 15.7383 27.0506 15.8245 26.8337 15.8245H25.5686C25.3517 15.8245 25.1437 15.7383 24.9903 15.585C24.8369 15.4316 24.7508 15.2236 24.7508 15.0067V12.4766C24.7508 12.2597 24.8369 12.0517 24.9903 11.8983Z" fill="black" stroke="black" stroke-width="0.261905"/>
<path d="M24.9368 34.4296H27.4669C27.921 34.4296 28.3565 34.2492 28.6776 33.9281C28.9987 33.6069 29.1791 33.1714 29.1791 32.7173V31.4522C29.1791 31.3336 29.132 31.2199 29.0482 31.136C28.9643 31.0522 28.8505 31.005 28.7319 31.005H23.6717C23.5531 31.005 23.4394 31.0522 23.3555 31.136C23.2716 31.2199 23.2245 31.3336 23.2245 31.4522V32.7173C23.2245 33.1714 23.4049 33.6069 23.726 33.9281C24.0471 34.2492 24.4827 34.4296 24.9368 34.4296ZM24.1189 32.7173V31.8995H28.2847V32.7173C28.2847 32.9342 28.1985 33.1422 28.0452 33.2956C27.8918 33.449 27.6838 33.5351 27.4669 33.5351H24.9368C24.7199 33.5351 24.5119 33.449 24.3585 33.2956C24.2051 33.1422 24.1189 32.9342 24.1189 32.7173Z" fill="black" stroke="black" stroke-width="0.261905"/>
<path d="M29.3645 14.1889H33.1596C33.446 14.1889 33.7206 14.0751 33.9231 13.8726C34.1256 13.6702 34.2393 13.3955 34.2393 13.1092V11.8441C34.2393 11.5577 34.1256 11.2831 33.9231 11.0806C33.7206 10.8781 33.446 10.7644 33.1596 10.7644C33.1105 10.7644 33.0633 10.7448 33.0286 10.7101C32.9938 10.6753 32.9743 10.6282 32.9743 10.5791V6.7839C32.9743 6.16203 32.7273 5.56562 32.2875 5.12589C31.8478 4.68616 31.2514 4.43912 30.6295 4.43912H23.6717C23.5531 4.43912 23.4394 4.48623 23.3555 4.5701C23.2716 4.65397 23.2245 4.76772 23.2245 4.88633C23.2245 5.00494 23.2716 5.11869 23.3555 5.20256C23.4394 5.28643 23.5531 5.33355 23.6717 5.33355H30.6295C31.0142 5.33355 31.3831 5.48635 31.6551 5.75835C31.9271 6.03034 32.0799 6.39925 32.0799 6.7839V10.5791C32.0799 10.8654 32.1936 11.1401 32.3961 11.3425C32.5986 11.545 32.8732 11.6588 33.1596 11.6588C33.2087 11.6588 33.2559 11.6783 33.2906 11.7131C33.3254 11.7478 33.3449 11.795 33.3449 11.8441V13.1092C33.3449 13.1583 33.3254 13.2054 33.2906 13.2402C33.2559 13.2749 33.2087 13.2945 33.1596 13.2945H29.3645C29.2458 13.2945 29.1321 13.3416 29.0482 13.4254C28.9644 13.5093 28.9172 13.6231 28.9172 13.7417C28.9172 13.8603 28.9644 13.974 29.0482 14.0579C29.1321 14.1418 29.2458 14.1889 29.3645 14.1889Z" fill="black" stroke="black" stroke-width="0.261905"/>
<path d="M11.6512 14.1885H23.0367C23.1553 14.1885 23.269 14.1414 23.3529 14.0575C23.4368 13.9737 23.4839 13.8599 23.4839 13.7413C23.4839 13.6227 23.4368 13.509 23.3529 13.4251C23.269 13.3412 23.1553 13.2941 23.0367 13.2941H11.6512C11.5326 13.2941 11.4189 13.3412 11.335 13.4251C11.2511 13.509 11.204 13.6227 11.204 13.7413C11.204 13.8599 11.2511 13.9737 11.335 14.0575C11.4189 14.1414 11.5326 14.1885 11.6512 14.1885Z" fill="black" stroke="black" stroke-width="0.261905"/>
<path d="M28.4149 14.0579L28.3227 14.1502L28.4149 14.0579C28.3311 13.974 28.2173 13.9269 28.0987 13.9269H24.3036C24.185 13.9269 24.0712 13.974 23.9873 14.0579C23.9035 14.1418 23.8564 14.2555 23.8564 14.3741C23.8564 14.4927 23.9035 14.6065 23.9873 14.6904C24.0712 14.7742 24.185 14.8213 24.3036 14.8213H28.0987C28.2173 14.8213 28.3311 14.7742 28.4149 14.6904C28.4988 14.6065 28.5459 14.4927 28.5459 14.3741C28.5459 14.2555 28.4988 14.1418 28.4149 14.0579Z" fill="black" stroke="black" stroke-width="0.261905"/>
</g>
<path d="M10.3534 3.40003V3.40032V5.29789C10.3534 5.58425 10.4672 5.85889 10.6697 6.06138C10.8722 6.26387 11.1468 6.37763 11.4332 6.37763H22.8186C23.105 6.37763 23.3796 6.26387 23.5821 6.06138C23.7846 5.85889 23.8983 5.58425 23.8983 5.29789V3.40032L23.8983 3.40003C23.8966 2.61101 23.5824 1.8548 23.0245 1.29688C22.4665 0.738962 21.7103 0.424751 20.9213 0.423003H20.921L13.3307 0.423002L13.3304 0.423003C12.5414 0.424751 11.7852 0.738962 11.2273 1.29688C10.6694 1.8548 10.3552 2.61101 10.3534 3.40003ZM11.8579 1.92749C12.2485 1.53688 12.7783 1.31743 13.3307 1.31743H20.921C21.4734 1.31743 22.0032 1.53688 22.3939 1.92749C22.7845 2.31811 23.0039 2.8479 23.0039 3.40032V5.29789C23.0039 5.34704 22.9844 5.39417 22.9496 5.42892C22.9149 5.46368 22.8678 5.4832 22.8186 5.4832H11.4332C11.384 5.4832 11.3369 5.46368 11.3021 5.42892C11.2674 5.39417 11.2479 5.34704 11.2479 5.29789V3.40032C11.2479 2.8479 11.4673 2.31811 11.8579 1.92749Z" fill="black" stroke="black" stroke-width="0.261905"/>
<path d="M7.63795 16.498H8.903C9.35712 16.498 9.79264 16.3176 10.1138 15.9965C10.4349 15.6754 10.6153 15.2398 10.6153 14.7857V12.2556C10.6153 11.8015 10.4349 11.366 10.1138 11.0449C9.79264 10.7238 9.35712 10.5434 8.903 10.5434H7.63795C7.18383 10.5434 6.74831 10.7238 6.4272 11.0449C6.10609 11.366 5.92569 11.8015 5.92569 12.2556V14.7857C5.92569 15.2398 6.10609 15.6754 6.4272 15.9965C6.74831 16.3176 7.18383 16.498 7.63795 16.498ZM7.05966 11.6773C7.21303 11.524 7.42105 11.4378 7.63795 11.4378H8.903C9.1199 11.4378 9.32792 11.524 9.4813 11.6773C9.63467 11.8307 9.72084 12.0387 9.72084 12.2556V14.7857C9.72084 15.0026 9.63467 15.2106 9.4813 15.364C9.32792 15.5174 9.1199 15.6036 8.903 15.6036H7.63795C7.42105 15.6036 7.21303 15.5174 7.05966 15.364C6.90628 15.2106 6.82012 15.0026 6.82012 14.7857V12.2556C6.82012 12.0387 6.90628 11.8307 7.05966 11.6773Z" fill="black" stroke="black" stroke-width="0.261905"/>
<path d="M7.00416 34.2089H9.53426C9.98838 34.2089 10.4239 34.0285 10.745 33.7073C11.0661 33.3862 11.2465 32.9507 11.2465 32.4966V31.2315C11.2465 31.1129 11.1994 30.9992 11.1155 30.9153C11.0317 30.8314 10.9179 30.7843 10.7993 30.7843H5.73911C5.62051 30.7843 5.50675 30.8314 5.42289 30.9153C5.33902 30.9992 5.2919 31.1129 5.2919 31.2315V32.4966C5.2919 32.9507 5.4723 33.3862 5.79341 33.7073C6.11452 34.0285 6.55004 34.2089 7.00416 34.2089ZM6.18633 32.4966V31.6788H10.3521V32.4966C10.3521 32.7135 10.2659 32.9215 10.1126 33.0749C9.95918 33.2283 9.75117 33.3144 9.53426 33.3144H7.00416C6.78726 33.3144 6.57924 33.2283 6.42587 33.0749C6.27249 32.9215 6.18633 32.7135 6.18633 32.4966Z" fill="black" stroke="black" stroke-width="0.261905"/>
<path d="M1.31207 13.9677H5.10722C5.22583 13.9677 5.33958 13.9206 5.42344 13.8367C5.50731 13.7528 5.55443 13.6391 5.55443 13.5205C5.55443 13.4019 5.50731 13.2881 5.42345 13.2043C5.33958 13.1204 5.22582 13.0733 5.10722 13.0733H1.31207C1.26292 13.0733 1.21579 13.0537 1.18103 13.019C1.14628 12.9842 1.12676 12.9371 1.12676 12.888V11.6229C1.12676 11.5738 1.14628 11.5266 1.18103 11.4919C1.21579 11.4571 1.26292 11.4376 1.31207 11.4376C1.59843 11.4376 1.87307 11.3238 2.07556 11.1214C2.27805 10.9189 2.39181 10.6442 2.39181 10.3579V6.56271C2.39181 6.17805 2.54461 5.80915 2.81661 5.53715C3.0886 5.26516 3.45751 5.11235 3.84217 5.11235H10.7999C10.9185 5.11235 11.0323 5.06524 11.1162 4.98137C11.2 4.8975 11.2472 4.78375 11.2472 4.66514C11.2472 4.54653 11.2 4.43278 11.1162 4.34891C11.0323 4.26504 10.9185 4.21792 10.7999 4.21792H3.84217C3.22029 4.21792 2.62388 4.46496 2.18415 4.9047C1.74442 5.34443 1.49738 5.94084 1.49738 6.56271V10.3579C1.49738 10.407 1.47785 10.4541 1.4431 10.4889C1.40835 10.5236 1.36122 10.5432 1.31207 10.5432C1.0257 10.5432 0.751068 10.6569 0.548577 10.8594C0.346087 11.0619 0.232329 11.3365 0.232329 11.6229V12.888C0.232329 13.1743 0.346087 13.449 0.548577 13.6515C0.751067 13.8539 1.0257 13.9677 1.31207 13.9677Z" fill="black" stroke="black" stroke-width="0.261905"/>
<path d="M3.84217 31.6785H30.4082C31.0301 31.6785 31.6265 31.4315 32.0662 30.9917C32.506 30.552 32.753 29.9556 32.753 29.3337V16.6832C32.753 16.6341 32.7725 16.5869 32.8073 16.5522C32.842 16.5174 32.8892 16.4979 32.9383 16.4979C33.2247 16.4979 33.4993 16.3842 33.7018 16.1817C33.9043 15.9792 34.018 15.7045 34.018 15.4182V14.1531C34.018 13.8668 33.9043 13.5921 33.7018 13.3896C33.4993 13.1872 33.2247 13.0734 32.9383 13.0734C32.8197 13.0734 32.7059 13.1205 32.6221 13.2044C32.5382 13.2883 32.4911 13.402 32.4911 13.5206C32.4911 13.6392 32.5382 13.753 32.6221 13.8368C32.7059 13.9207 32.8197 13.9678 32.9383 13.9678C32.9875 13.9678 33.0346 13.9873 33.0693 14.0221C33.1041 14.0568 33.1236 14.104 33.1236 14.1531V15.4182C33.1236 15.4673 33.1041 15.5145 33.0693 15.5492C33.0346 15.584 32.9875 15.6035 32.9383 15.6035C32.6519 15.6035 32.3773 15.7173 32.1748 15.9197C31.9723 16.1222 31.8586 16.3969 31.8586 16.6832V29.3337C31.8586 29.5242 31.8211 29.7128 31.7482 29.8888C31.6753 30.0647 31.5684 30.2246 31.4338 30.3593C31.2991 30.494 31.1392 30.6008 30.9632 30.6737C30.7873 30.7466 30.5987 30.7841 30.4082 30.7841H3.84217C3.6517 30.7841 3.4631 30.7466 3.28714 30.6737C3.11117 30.6008 2.95129 30.494 2.81661 30.3593C2.68193 30.2246 2.5751 30.0647 2.50221 29.8888C2.42932 29.7128 2.39181 29.5242 2.39181 29.3337V16.6832C2.39181 16.3969 2.27805 16.1222 2.07556 15.9197C1.87307 15.7173 1.59843 15.6035 1.31207 15.6035C1.26292 15.6035 1.21579 15.584 1.18103 15.5492C1.14628 15.5145 1.12676 15.4673 1.12676 15.4182V14.1531C1.12676 14.104 1.14628 14.0569 1.18103 14.0221C1.21579 13.9873 1.26292 13.9678 1.31207 13.9678C1.43068 13.9678 1.54443 13.9207 1.6283 13.8368C1.71217 13.753 1.75928 13.6392 1.75928 13.5206C1.75928 13.402 1.71217 13.2882 1.6283 13.2044C1.54443 13.1205 1.43068 13.0734 1.31207 13.0734C1.0257 13.0734 0.751068 13.1872 0.548577 13.3896C0.346087 13.5921 0.232329 13.8668 0.232329 14.1531V15.4182C0.232329 15.7045 0.346087 15.9792 0.548577 16.1817C0.751068 16.3842 1.0257 16.4979 1.31207 16.4979C1.36122 16.4979 1.40835 16.5174 1.4431 16.5522C1.47785 16.5869 1.49738 16.6341 1.49738 16.6832V29.3337C1.49738 29.9556 1.74442 30.552 2.18415 30.9917C2.62388 31.4315 3.22029 31.6785 3.84217 31.6785Z" fill="black" stroke="black" stroke-width="0.261905"/>
<path d="M10.4843 13.8372L10.392 13.9295L10.4843 13.8372C10.4004 13.7533 10.2867 13.7062 10.1681 13.7062H6.3729C6.25429 13.7062 6.14054 13.7533 6.05667 13.8372C5.9728 13.9211 5.92569 14.0348 5.92569 14.1534C5.92569 14.272 5.9728 14.3858 6.05667 14.4696C6.14054 14.5535 6.25429 14.6006 6.3729 14.6006H10.1681C10.2867 14.6006 10.4004 14.5535 10.4843 14.4696C10.5681 14.3858 10.6153 14.272 10.6153 14.1534C10.6153 14.0348 10.5681 13.9211 10.4843 13.8372Z" fill="black" stroke="black" stroke-width="0.261905"/>
<defs>
<clipPath id="clip0_506_245">
<rect width="33.5238" height="33.5238" fill="white" transform="translate(0.584961 0.77417)"/>
</clipPath>
</defs>
</svg>
