<svg width="34" height="34" viewBox="0 0 34 34" fill="none" xmlns="http://www.w3.org/2000/svg">
<path d="M15.9605 16.9433L15.9605 16.9433H15.9579H9.63267C9.51406 16.9433 9.40031 16.9904 9.31644 17.0743C9.23257 17.1581 9.18545 17.2719 9.18545 17.3905V27.5109C9.18545 27.6295 9.23257 27.7432 9.31644 27.8271C9.40031 27.911 9.51406 27.9581 9.63267 27.9581H22.7512C22.7512 27.9581 22.7512 27.9581 22.7512 27.9581C22.8683 27.9581 22.9807 27.9122 23.0643 27.8303C23.1479 27.7483 23.1961 27.6369 23.1984 27.5198L23.1984 27.5198V27.5172V21.192C23.1984 21.0733 23.1513 20.9596 23.0675 20.8757L22.9749 20.9683L23.0675 20.8757C22.9836 20.7919 22.8698 20.7447 22.7512 20.7447C22.6326 20.7447 22.5189 20.7919 22.435 20.8757C22.3511 20.9596 22.304 21.0733 22.304 21.192V27.0637H10.0799V17.8377H15.9579C16.0765 17.8377 16.1903 17.7906 16.2741 17.7067C16.358 17.6228 16.4051 17.5091 16.4052 17.3905L16.4051 17.3879C16.4028 17.2707 16.3553 17.1589 16.2724 17.076C16.1895 16.9931 16.0777 16.9456 15.9605 16.9433Z" fill="black" stroke="black" stroke-width="0.261905"/>
<path d="M22.3059 19.2881H22.3059V17.8377H18.1737C18.0551 17.8377 17.9413 17.7906 17.8575 17.7067C17.7736 17.6228 17.7265 17.5091 17.7265 17.3905V17.3879L17.7265 17.3879C17.7288 17.2707 17.7763 17.1589 17.8592 17.076L17.9518 17.1686L17.8592 17.076C17.9421 16.9931 18.0539 16.9456 18.1711 16.9433L18.1737 16.9432V16.9433H22.7658C22.8844 16.9433 22.9982 16.9904 23.082 17.0743L22.9895 17.1668L23.082 17.0743C23.1659 17.1581 23.213 17.2719 23.213 17.3905V19.288V19.2881H23.0821C23.0821 19.3307 23.0735 19.3729 23.0569 19.4121C23.0402 19.4513 23.0157 19.4867 22.985 19.5163C22.9543 19.5458 22.9179 19.5688 22.8781 19.584C22.8382 19.5991 22.7957 19.606 22.7532 19.6043L22.3059 19.2881ZM22.3059 19.2881L22.306 19.2906C22.3083 19.4078 22.3558 19.5196 22.4387 19.6025C22.5213 19.6851 22.6325 19.7326 22.7493 19.7352L22.3059 19.2881Z" fill="black" stroke="black" stroke-width="0.261905"/>
<path d="M13.4434 22.8979V22.8981L13.4511 22.8977C13.5652 22.891 13.6726 22.8414 13.7517 22.759C13.8308 22.6766 13.8759 22.5673 13.878 22.453L13.878 22.453V22.4507V21.1856C13.878 21.067 13.8309 20.9533 13.747 20.8694C13.6632 20.7855 13.5494 20.7384 13.4308 20.7384C13.3122 20.7384 13.1984 20.7855 13.1146 20.8694C13.0307 20.9533 12.9836 21.067 12.9836 21.1856V22.0035H10.0829V17.8377H12.9962V19.2881C12.9962 19.4067 13.0433 19.5204 13.1272 19.6043C13.2111 19.6882 13.3248 19.7353 13.4434 19.7353C13.562 19.7353 13.6758 19.6882 13.7597 19.6043C13.8435 19.5204 13.8907 19.4067 13.8907 19.2881V17.3905H13.8907L13.8906 17.3879C13.8884 17.2707 13.8408 17.1589 13.7579 17.076C13.675 16.9931 13.5632 16.9456 13.446 16.9433L13.446 16.9433H13.4434H9.64829C9.52969 16.9433 9.41593 16.9904 9.33206 17.0743C9.2482 17.1581 9.20108 17.2719 9.20108 17.3905V22.4507C9.20108 22.5693 9.2482 22.683 9.33206 22.7669C9.41593 22.8508 9.52969 22.8979 9.64829 22.8979H13.4434Z" fill="black" stroke="black" stroke-width="0.261905"/>
<path d="M13.4434 27.958V27.9581L13.7471 27.5107H13.878V27.5106V26.2457C13.878 26.1271 13.8309 26.0133 13.747 25.9295C13.6632 25.8456 13.5494 25.7985 13.4308 25.7985C13.3122 25.7985 13.1984 25.8456 13.1146 25.9295C13.0307 26.0133 12.9836 26.1271 12.9836 26.2457V27.0635H10.0829V22.8978H12.9962V24.3481C12.9962 24.4667 13.0433 24.5805 13.1272 24.6643C13.2111 24.7482 13.3248 24.7953 13.4434 24.7954L13.446 24.7953C13.5632 24.793 13.675 24.7454 13.7579 24.6625C13.8408 24.5797 13.8884 24.4679 13.8906 24.3507L13.8907 24.3507V24.3481V22.4505C13.8907 22.3319 13.8435 22.2182 13.7597 22.1343L13.6671 22.2269L13.7597 22.1343C13.6758 22.0504 13.562 22.0033 13.4434 22.0033H9.64829C9.52969 22.0033 9.41593 22.0504 9.33206 22.1343C9.2482 22.2182 9.20108 22.3319 9.20108 22.4505V27.5107C9.20108 27.6293 9.2482 27.7431 9.33206 27.827C9.41593 27.9108 9.52969 27.958 9.64829 27.958H13.4434Z" fill="black" stroke="black" stroke-width="0.261905"/>
<path d="M28.9265 8.21904L28.9265 8.21904C28.8426 8.13517 28.7289 8.08805 28.6103 8.08805H20.0736C20.0136 8.08602 19.9537 8.0961 19.8977 8.1177C19.8407 8.13964 19.7889 8.173 19.7453 8.21573L19.837 8.30922L19.7453 8.21573C19.7017 8.25846 19.6674 8.30966 19.6443 8.36617C19.6215 8.42222 19.6102 8.48232 19.6113 8.54284V17.3969C19.6113 17.5155 19.6584 17.6293 19.7423 17.7132C19.8262 17.797 19.9399 17.8442 20.0585 17.8442C20.1771 17.8442 20.2909 17.797 20.3747 17.7132C20.4586 17.6293 20.5057 17.5155 20.5057 17.3969V8.98248H28.163V16.9434H26.7127C26.5941 16.9434 26.4803 16.9905 26.3965 17.0744C26.3126 17.1583 26.2655 17.272 26.2655 17.3906C26.2655 17.5092 26.3126 17.623 26.3964 17.7068C26.4803 17.7907 26.5941 17.8378 26.7127 17.8378H28.6103C28.7289 17.8378 28.8426 17.7907 28.9265 17.7068C29.0104 17.623 29.0575 17.5092 29.0575 17.3906V8.53527C29.0575 8.41666 29.0104 8.30291 28.9265 8.21904Z" fill="black" stroke="black" stroke-width="0.261905"/>
<path d="M22.7512 22.8979L22.7512 22.8979H22.7538H28.6109C28.7295 22.8979 28.8433 22.8508 28.9272 22.7669C29.011 22.683 29.0582 22.5693 29.0582 22.4507V17.3905C29.0582 17.2719 29.011 17.1581 28.9272 17.0743L28.8346 17.1668L28.9272 17.0743C28.8433 16.9904 28.7295 16.9433 28.6109 16.9433C28.4923 16.9433 28.3786 16.9904 28.2947 17.0743C28.2108 17.1581 28.1637 17.2719 28.1637 17.3905V22.0035H22.7538C22.6352 22.0035 22.5214 22.0506 22.4375 22.1344C22.3537 22.2183 22.3065 22.3321 22.3065 22.4507L22.3066 22.4532C22.3088 22.5704 22.3564 22.6822 22.4393 22.7651C22.5222 22.848 22.634 22.8956 22.7512 22.8979Z" fill="black" stroke="black" stroke-width="0.261905"/>
<path d="M22.3066 17.3879L22.3065 17.3879V17.3905C22.3065 17.5091 22.3537 17.6228 22.4375 17.7067C22.5214 17.7906 22.6352 17.8377 22.7538 17.8377H24.6513C24.7699 17.8377 24.8837 17.7906 24.9676 17.7067C25.0514 17.6228 25.0986 17.5091 25.0986 17.3905C25.0986 17.2719 25.0514 17.1581 24.9676 17.0743C24.8837 16.9904 24.7699 16.9433 24.6513 16.9433H22.7538V16.9432L22.7512 16.9433C22.634 16.9456 22.5222 16.9931 22.4393 17.076C22.3564 17.1589 22.3088 17.2707 22.3066 17.3879Z" fill="black" stroke="black" stroke-width="0.261905"/>
<path d="M10.0799 8.98225V17.3967C10.0799 17.5153 10.0328 17.6291 9.9489 17.7129C9.86503 17.7968 9.75128 17.8439 9.63267 17.8439C9.51406 17.8439 9.40031 17.7968 9.31644 17.7129C9.23257 17.6291 9.18545 17.5153 9.18545 17.3967V8.54136C9.18545 8.42275 9.23257 8.309 9.31644 8.22513C9.40031 8.14126 9.51406 8.09415 9.63267 8.09415H20.0693C20.1879 8.09415 20.3017 8.14126 20.3856 8.22513C20.4694 8.309 20.5165 8.42275 20.5165 8.54136V17.3967V17.3993H20.5165C20.5142 17.5164 20.466 17.6278 20.3824 17.7098C20.2988 17.7917 20.1864 17.8376 20.0693 17.8376L10.0799 8.98225ZM10.0799 8.98225H19.6221V17.3904C19.6221 17.509 19.6692 17.6227 19.7531 17.7066C19.837 17.7905 19.9507 17.8376 20.0693 17.8376L10.0799 8.98225Z" fill="black" stroke="black" stroke-width="0.261905"/>
<path d="M1.22637 28.7758C1.22634 28.6573 1.17922 28.5436 1.09538 28.4597C1.01151 28.3758 0.897761 28.3287 0.779153 28.3287C0.660545 28.3287 0.546794 28.3758 0.462924 28.4597C0.379055 28.5436 0.331938 28.6573 0.331938 28.7759L0.331938 28.7761C0.333665 29.9007 0.78116 30.9787 1.57635 31.7739C2.37153 32.5691 3.44954 33.0166 4.5741 33.0183H4.5743H32.4054C32.8595 33.0183 33.295 32.8379 33.6161 32.5168C33.9373 32.1957 34.1177 31.7602 34.1177 31.306V4.74C34.1177 4.28588 33.9373 3.85036 33.6161 3.52925C33.295 3.20814 32.8595 3.02774 32.4054 3.02774H4.5743C4.45569 3.02774 4.34194 3.07486 4.25807 3.15873C4.1742 3.24259 4.12709 3.35634 4.12709 3.47495C4.12709 3.59356 4.1742 3.70731 4.25807 3.79118C4.34194 3.87505 4.45569 3.92217 4.5743 3.92217H32.4054C32.6223 3.92217 32.8303 4.00833 32.9837 4.16171C33.1371 4.31508 33.2232 4.5231 33.2232 4.74V31.306C33.2232 31.5229 33.1371 31.731 32.9837 31.8843C32.8303 32.0377 32.6223 32.1239 32.4054 32.1239H4.57454C3.68704 32.1223 2.83636 31.769 2.2088 31.1414C1.58127 30.5139 1.22801 29.6633 1.22637 28.7758ZM1.22637 28.7758C1.22637 28.7759 1.22637 28.7759 1.22637 28.7759H1.09542M1.22637 28.7758C1.22637 28.7758 1.22637 28.7757 1.22637 28.7757L1.09542 28.7759M1.09542 28.7759C1.09542 28.6921 1.06209 28.6116 1.00278 28.5523C0.943474 28.493 0.863031 28.4597 0.779153 28.4597C0.695275 28.4597 0.614832 28.493 0.555522 28.5523C0.496211 28.6116 0.462891 28.6921 0.462891 28.7759H1.09542Z" fill="black" stroke="black" stroke-width="0.261905"/>
<path d="M0.331938 3.47449V3.47469V28.7757C0.331938 28.8943 0.379055 29.008 0.462924 29.0919C0.546794 29.1758 0.660545 29.2229 0.779153 29.2229C0.897761 29.2229 1.01151 29.1758 1.09538 29.0919C1.17919 29.0081 1.2263 28.8944 1.22637 28.7759C1.22798 27.8884 1.58125 27.0377 2.2088 26.4102C2.83636 25.7826 3.68704 25.4294 4.57454 25.4277C4.69306 25.4277 4.80672 25.3806 4.89053 25.2968C4.9744 25.2129 5.02152 25.0991 5.02152 24.9805V-0.320456C5.02152 -0.439065 4.9744 -0.552816 4.89053 -0.636685C4.80666 -0.720554 4.69291 -0.767671 4.5743 -0.767671L4.5741 -0.767671C3.44954 -0.765945 2.37153 -0.31845 1.57635 0.476736C0.78116 1.27192 0.333665 2.34993 0.331938 3.47449ZM1.22637 3.47469L1.22637 3.47458C1.22568 2.63763 1.53732 1.83054 2.10032 1.21124C2.6309 0.627599 3.34874 0.25034 4.12709 0.142842V24.5447C3.51151 24.6098 2.91703 24.8085 2.3854 25.1275C1.93884 25.3955 1.54629 25.7425 1.22637 26.1504L1.22637 3.47469Z" fill="black" stroke="black" stroke-width="0.261905"/>
</svg>
