<svg xmlns="http://www.w3.org/2000/svg" xml:space="preserve" width="23" height="23" viewBox="0 0 500 500"><g transform="matrix(1.04 0 0 1.04 250 250)"><linearGradient id="a" x1="250" x2="250" y1="0" y2="500" gradientUnits="userSpaceOnUse"><stop offset="0%" style="stop-color:#f9b9a6;stop-opacity:1"/><stop offset="50%" style="stop-color:#e2a492;stop-opacity:1"/><stop offset="100%" style="stop-color:#ce9181;stop-opacity:1"/></linearGradient><path d="M434.5 16h-357A61.7 61.7 0 0 0 16 77.5v357c.1 34 27.6 61.4 61.5 61.5h357c34-.1 61.4-27.6 61.5-61.5v-357A61.7 61.7 0 0 0 434.5 16zM365 269.4c1.6 15 54.3 46.6 50.4 70.8-1.8 10.9-20 9-36.2 9.5-15 .5-29.6-.5-36.2-3.2-11-4.3-39.6-42.4-47.2-40.9-16.8 3.3-10.7 38.5-15.7 41-7.2 3.4-30.5 2.4-39.3 1.5-47.3-8-74.8-39.7-100.7-80.3-31.7-49.5-50.4-86.8-42.5-91.2 8.8-4.9 33.3-3.8 58.2-3.2 7.5.3 29 54 34.6 63 22.6 36 29.6 9.4 30 6.3 6-64.7-9.8-61.8-19-63 7-21 55-17.3 55-17.3s16.2 4 22.1 7.9c2.5 1.6 5.2 6.9 4.7 23.6-.6 25.2-3.2 59.6 8 59.8 8.5.1 22-20 33-41 9.6-18.4 17-36.4 20.4-37.7 3.6-1.4 19-1.5 34.6-1.6 15.2 0 30.6-.2 34.6 3.2 8 6.8-6 28.9-18.9 47.2-10.6 15-31 34.9-29.9 45.6z" style="stroke:none;stroke-width:1;stroke-dasharray:none;stroke-linecap:butt;stroke-dashoffset:0;stroke-linejoin:miter;stroke-miterlimit:4;fill:url(#a);fill-rule:evenodd;opacity:1" transform="translate(-256 -256)" vector-effect="non-scaling-stroke"/></g></svg>